<!DOCTYPE svg PUBLIC "-//W3C//DTD SVG 20010904//EN" "http://www.w3.org/TR/2001/REC-SVG-20010904/DTD/svg10.dtd">
<svg version="1.0" xmlns="http://www.w3.org/2000/svg" width="850px" height="250px" viewBox="0 0 8500 2500" preserveAspectRatio="xMidYMid meet">
<g id="layer101" fill="#010101" stroke="none">
<path d="M620 1675 l0 -55 3595 0 3595 0 0 55 0 55 -3595 0 -3595 0 0 -55z"/>
<path d="M3457 1500 c-86 -11 -197 -71 -257 -138 -88 -98 -130 -214 -130 -355 1 -205 90 -355 260 -436 68 -33 84 -36 180 -39 88 -3 115 0 170 18 141 47 243 169 257 306 4 37 2 54 -8 60 -8 5 -160 11 -339 14 l-325 5 1 45 c1 120 71 230 181 285 52 27 68 30 148 30 73 0 98 -4 131 -22 48 -26 105 -86 134 -143 17 -33 24 -39 38 -31 10 5 24 21 31 34 31 59 -59 218 -170 301 -74 54 -192 80 -302 66z m223 -697 c0 -15 -10 -47 -21 -71 -37 -76 -141 -110 -243 -80 -52 16 -127 90 -143 141 l-11 37 209 0 209 0 0 -27z"/>
<path d="M5305 1499 c-156 -15 -304 -144 -356 -310 -23 -73 -25 -210 -5 -285 31 -118 120 -241 218 -304 119 -77 299 -94 407 -38 l52 28 -3 -166 c-3 -186 -4 -188 -76 -181 -35 4 -47 0 -63 -16 -38 -41 -27 -50 124 -104 175 -63 198 -67 204 -42 3 11 9 19 13 19 5 0 10 269 12 598 2 502 5 602 17 616 11 13 27 17 63 14 45 -3 50 -1 66 26 17 27 16 28 -7 44 -40 27 -253 103 -289 104 -39 0 -61 -23 -62 -65 l0 -29 -32 22 c-90 59 -174 80 -283 69z m230 -166 c16 -9 42 -24 58 -35 l27 -19 0 -243 0 -242 -27 -54 c-23 -44 -37 -59 -77 -79 -120 -61 -252 -8 -313 126 -63 137 -51 345 26 455 31 43 106 97 153 108 42 11 114 3 153 -17z"/>
<path d="M6316 1499 c-118 -18 -218 -80 -290 -183 -57 -80 -86 -162 -93 -261 -11 -162 33 -300 126 -393 90 -90 197 -132 339 -132 147 0 262 56 336 163 57 83 84 199 53 226 -9 7 -119 12 -338 13 -370 3 -342 -5 -318 97 27 119 83 192 187 243 66 32 208 33 268 1 51 -27 96 -73 126 -129 26 -50 48 -56 72 -19 22 33 20 51 -10 115 -89 192 -260 289 -458 259z m224 -696 c0 -16 -9 -47 -20 -71 -16 -35 -29 -47 -72 -67 -111 -52 -224 -19 -289 83 -53 84 -58 82 176 82 l205 0 0 -27z"/>
<path d="M1005 1484 c-5 -1 -36 -5 -68 -9 -91 -10 -96 -20 -91 -179 3 -72 7 -150 10 -173 5 -43 5 -43 47 -43 50 0 62 17 83 125 11 58 20 76 48 102 66 61 170 53 211 -17 19 -34 20 -52 23 -546 3 -411 1 -513 -10 -521 -7 -6 -53 -18 -103 -28 -99 -19 -124 -37 -125 -89 l0 -29 213 5 c116 3 274 3 350 -1 135 -6 138 -5 153 16 7 12 14 33 14 47 0 20 -7 27 -37 35 -21 6 -43 11 -50 11 -6 0 -15 4 -18 10 -5 9 81 183 283 570 30 58 82 160 116 227 33 68 66 123 71 122 6 0 26 -33 45 -72 34 -68 231 -454 393 -767 l75 -145 207 -3 c202 -2 208 -2 226 19 11 12 19 26 19 31 0 12 -46 28 -83 28 -51 0 -100 30 -114 70 -13 38 -17 1013 -4 1060 9 33 64 60 121 60 36 1 49 5 63 26 15 20 16 28 7 39 -10 13 -63 15 -315 15 l-303 0 -16 -25 c-27 -42 -21 -55 27 -55 62 0 113 -17 136 -46 28 -36 32 -116 29 -539 l-3 -370 -136 265 c-76 146 -161 312 -191 370 -30 58 -87 169 -127 247 -39 77 -78 144 -87 147 -31 12 -53 -16 -124 -156 -40 -79 -92 -179 -115 -223 -23 -44 -106 -205 -185 -359 -99 -193 -145 -274 -151 -265 -12 20 -11 841 1 874 12 32 63 55 121 55 28 0 46 6 55 18 20 26 17 51 -8 56 -25 5 -667 15 -683 10z"/>
<path d="M3923 1473 c-7 -2 -13 -11 -13 -19 0 -8 -4 -14 -10 -14 -5 0 -10 -8 -10 -19 0 -15 10 -19 52 -23 94 -9 101 -39 96 -400 -3 -313 -1 -302 -77 -295 -33 4 -48 0 -62 -14 -26 -26 -24 -56 4 -64 12 -4 72 -25 132 -47 154 -57 181 -61 200 -32 8 12 15 45 16 73 1 28 4 51 6 51 2 0 35 -24 72 -52 84 -64 148 -88 232 -88 116 0 188 49 246 167 l28 58 5 302 c6 337 4 328 76 340 40 7 63 26 64 54 0 9 -7 20 -16 23 -20 8 -448 8 -468 0 -9 -3 -16 -12 -16 -20 0 -8 -4 -14 -10 -14 -5 0 -10 -8 -10 -19 0 -15 10 -19 58 -24 45 -5 62 -12 80 -32 22 -26 22 -30 22 -303 0 -244 -2 -281 -18 -312 -24 -48 -55 -62 -128 -57 -73 5 -149 43 -196 96 l-30 34 3 268 c4 305 2 296 86 306 42 4 53 10 62 30 23 50 10 53 -238 52 -124 0 -232 -3 -238 -6z"/>
<path d="M6781 1454 c-18 -21 -21 -31 -13 -48 8 -17 172 -215 285 -346 12 -14 92 -108 177 -210 l154 -185 -159 -3 c-88 -2 -179 0 -202 3 -51 7 -89 44 -103 99 -17 64 -18 66 -41 66 -39 0 -48 -27 -49 -142 0 -58 3 -113 6 -122 5 -14 52 -16 420 -16 347 0 414 2 414 14 0 8 7 16 15 20 38 14 37 16 -430 565 -50 58 -112 132 -139 165 l-49 58 219 -3 c189 -4 224 -6 247 -22 34 -22 52 -57 67 -129 13 -66 35 -77 65 -31 16 23 17 42 11 146 -3 66 -11 126 -17 133 -9 11 -91 14 -433 14 l-422 0 -23 -26z"/>
<path d="M3479 448 c-17 -23 -16 -24 78 -280 l25 -68 109 -1 c60 -1 115 -2 122 -3 6 -1 11 7 9 18 -2 11 1 15 8 11 8 -5 11 0 8 13 -4 27 -304 332 -326 332 -9 -1 -24 -10 -33 -22z"/>
</g>
<g id="layer102" fill="#02022f" stroke="none">
<path d="M620 1717 c0 -5 5 -5 10 -2 6 4 10 -10 10 -34 l0 -41 3581 0 c2384 0 3578 -3 3574 -10 -3 -5 -2 -10 2 -10 5 0 9 24 9 53 l-1 52 -3592 0 c-1976 0 -3593 -4 -3593 -8z"/>
</g>
<g id="layer103" fill="#323232" stroke="none">
<path d="M620 1720 c0 -6 5 -8 10 -5 6 4 10 -10 10 -34 l0 -41 3574 0 c3423 0 3574 1 3578 18 3 10 1 28 -3 40 l-8 22 -3565 0 c-1960 0 -3571 3 -3580 6 -9 3 -16 1 -16 -6z"/>
<path d="M3457 1500 c-86 -11 -197 -71 -257 -138 -88 -98 -130 -214 -130 -355 1 -205 90 -355 260 -436 68 -33 84 -36 180 -39 88 -3 115 0 170 18 141 47 243 169 257 306 4 37 2 54 -8 60 -8 5 -160 11 -339 14 l-325 5 1 45 c1 120 71 230 181 285 52 27 68 30 148 30 73 0 98 -4 131 -22 48 -26 105 -86 134 -143 17 -33 24 -39 38 -31 10 5 24 21 31 34 31 59 -59 218 -170 301 -74 54 -192 80 -302 66z m216 -72 c101 -48 195 -160 226 -272 15 -57 6 -56 -24 4 -45 90 -98 137 -178 161 -95 29 -175 22 -266 -24 -40 -20 -66 -40 -66 -50 0 -9 -12 -29 -26 -44 -68 -72 -109 -176 -109 -273 l0 -45 337 0 338 0 -2 -53 c-2 -53 -36 -137 -71 -175 -20 -23 -58 -45 -48 -28 4 6 3 11 -3 11 -5 0 -11 -3 -13 -7 -9 -21 -110 -56 -191 -66 -149 -18 -245 13 -342 110 -89 89 -122 177 -126 340 -2 54 -7 101 -12 104 -13 9 21 106 54 154 54 78 125 133 214 164 89 31 228 26 308 -11z"/>
<path d="M3234 845 c-11 -27 4 -87 33 -134 42 -67 108 -105 193 -109 59 -4 75 -1 118 23 54 29 85 64 96 108 3 15 13 27 20 27 16 0 27 63 14 83 -5 9 -68 13 -238 15 -203 3 -231 1 -236 -13z m446 -42 c0 -15 -10 -47 -21 -71 -37 -76 -141 -110 -243 -80 -52 16 -127 90 -143 141 l-11 37 209 0 209 0 0 -27z"/>
<path d="M5305 1499 c-156 -15 -304 -144 -356 -310 -23 -73 -25 -210 -5 -285 31 -118 120 -241 218 -304 119 -77 299 -94 407 -38 l52 28 -3 -166 c-3 -186 -4 -188 -76 -181 -35 4 -47 0 -63 -16 -38 -41 -27 -50 124 -104 175 -63 198 -67 204 -42 3 11 9 19 13 19 5 0 10 269 12 598 2 502 5 602 17 616 11 13 27 17 63 14 45 -3 50 -1 66 26 17 27 16 28 -7 44 -40 27 -253 103 -289 104 -39 0 -61 -23 -62 -65 l0 -29 -32 22 c-90 59 -174 80 -283 69z m190 -72 c33 -16 73 -40 89 -55 19 -18 30 -23 33 -14 3 6 13 12 24 12 16 0 18 5 14 27 -2 16 -9 29 -15 31 -24 8 -9 32 20 32 41 0 300 -99 300 -115 0 -10 -10 -9 -43 3 -50 18 -96 11 -96 -16 0 -9 -4 -37 -10 -62 -6 -27 -10 -270 -11 -617 0 -375 -3 -573 -10 -573 -5 0 -10 4 -10 9 0 12 -159 70 -221 81 -30 4 -62 11 -71 15 -29 12 -11 23 24 16 51 -10 78 -2 96 30 10 16 23 29 30 29 9 0 13 34 14 133 1 72 2 146 3 162 3 74 -20 82 -107 38 -47 -25 -64 -28 -148 -28 -77 1 -104 5 -145 24 -78 35 -150 96 -199 169 -59 86 -86 164 -93 269 -3 46 -9 86 -13 88 -11 7 7 80 31 127 23 45 88 119 132 150 17 12 55 32 86 45 81 34 211 30 296 -10z"/>
<path d="M5342 1376 c-49 -23 -104 -68 -98 -82 2 -6 -5 -20 -16 -31 -100 -90 -131 -369 -57 -515 45 -89 141 -158 220 -158 94 0 194 72 220 159 6 22 16 38 21 35 4 -3 10 1 12 8 7 20 15 451 9 480 -4 20 -23 38 -76 70 -61 37 -79 43 -136 45 -42 2 -78 -2 -99 -11z m193 -43 c16 -9 42 -24 58 -35 l27 -19 0 -243 0 -242 -27 -54 c-23 -44 -37 -59 -77 -79 -120 -61 -252 -8 -313 126 -63 137 -51 345 26 455 31 43 106 97 153 108 42 11 114 3 153 -17z"/>
<path d="M6316 1499 c-118 -18 -218 -80 -290 -183 -57 -80 -86 -162 -93 -261 -11 -162 33 -300 126 -393 90 -90 197 -132 339 -132 147 0 262 56 336 163 57 83 84 199 53 226 -9 7 -119 12 -338 13 -370 3 -342 -5 -318 97 27 119 83 192 187 243 66 32 208 33 268 1 51 -27 96 -73 126 -129 26 -50 48 -56 72 -19 22 33 20 51 -10 115 -89 192 -260 289 -458 259z m215 -70 c103 -48 188 -146 225 -258 23 -72 11 -74 -25 -4 -33 65 -91 125 -147 148 -96 40 -229 26 -323 -35 -54 -34 -81 -60 -62 -60 6 0 11 5 11 12 0 6 3 9 6 5 4 -3 -12 -29 -36 -57 -52 -62 -80 -133 -87 -222 l-6 -68 339 -2 339 -3 -1 -51 c-2 -60 -29 -126 -74 -177 -31 -36 -66 -54 -39 -20 10 12 4 10 -18 -5 -51 -36 -141 -63 -233 -69 -123 -8 -215 25 -303 110 -88 84 -128 197 -130 361 -1 60 -4 91 -9 80 -5 -12 -6 -3 -2 21 19 135 157 279 301 315 21 5 79 8 128 7 73 -2 100 -7 146 -28z"/>
<path d="M6103 854 c-30 -13 -7 -104 42 -169 93 -122 313 -109 379 22 9 18 16 40 16 50 0 15 2 16 10 3 10 -16 13 -12 24 40 11 53 5 55 -236 57 -123 1 -229 0 -235 -3z m437 -51 c0 -16 -9 -47 -20 -71 -16 -35 -29 -47 -72 -67 -111 -52 -224 -19 -289 83 -53 84 -58 82 176 82 l205 0 0 -27z"/>
<path d="M1005 1484 c-5 -1 -36 -5 -68 -9 -91 -10 -96 -20 -91 -179 3 -72 7 -150 10 -173 5 -43 5 -43 47 -43 50 0 62 17 83 125 11 58 20 76 48 102 66 61 170 53 211 -17 19 -34 20 -52 23 -543 2 -345 0 -513 -7 -521 -6 -7 -53 -21 -106 -31 -79 -15 -97 -22 -111 -42 -15 -23 -15 -25 3 -19 10 3 43 11 73 17 30 6 72 14 93 19 24 5 49 20 68 41 l31 34 -4 505 c-3 489 -4 506 -24 545 -37 72 -116 106 -194 85 -40 -11 -106 -59 -82 -60 8 0 3 -13 -13 -34 -18 -23 -32 -62 -42 -115 l-16 -80 -22 17 c-20 15 -23 28 -28 146 -5 103 -9 131 -21 138 -27 15 -18 26 37 39 81 21 777 12 777 -10 0 -3 -26 -6 -58 -7 -57 -1 -148 -24 -125 -31 8 -3 8 -13 -3 -38 -21 -51 -21 -987 0 -965 15 16 58 99 439 840 104 203 122 230 143 208 6 -7 69 -125 139 -263 70 -137 149 -290 175 -340 26 -49 91 -178 146 -285 89 -175 100 -191 105 -165 4 17 7 24 8 18 0 -7 6 -13 11 -13 7 0 10 154 8 483 -3 518 -3 512 -55 536 -36 16 -183 26 -183 12 0 -6 17 -11 43 -11 62 0 113 -17 136 -46 28 -36 32 -116 29 -539 l-3 -370 -136 265 c-76 146 -161 312 -191 370 -30 58 -87 169 -127 247 -39 77 -78 144 -87 147 -31 12 -53 -16 -124 -156 -40 -79 -92 -179 -115 -223 -23 -44 -106 -205 -185 -359 -99 -193 -145 -274 -151 -265 -12 20 -11 841 1 874 12 32 63 55 121 55 28 0 46 6 55 18 20 26 17 51 -8 56 -25 5 -667 15 -683 10z"/>
<path d="M2446 1455 l-16 -25 237 6 c131 3 275 2 321 -3 64 -7 85 -6 94 4 7 9 7 17 -2 28 -11 13 -58 15 -315 15 l-303 0 -16 -25z"/>
<path d="M3923 1473 c-7 -2 -13 -11 -13 -19 0 -8 -4 -14 -10 -14 -5 0 -10 -8 -10 -19 0 -15 10 -19 52 -23 94 -9 101 -39 96 -400 -3 -313 -1 -302 -77 -295 -33 4 -48 0 -62 -14 -26 -26 -24 -56 4 -64 12 -4 72 -25 132 -47 154 -57 181 -61 200 -32 8 12 15 45 16 73 1 28 4 51 6 51 2 0 35 -24 72 -52 84 -64 148 -88 232 -88 116 0 188 49 246 167 l28 58 5 302 c6 337 4 328 76 340 40 7 63 26 64 54 0 9 -7 20 -16 23 -20 8 -448 8 -468 0 -9 -3 -16 -12 -16 -20 0 -8 -4 -14 -10 -14 -5 0 -10 -8 -10 -19 0 -15 10 -19 58 -24 45 -5 62 -12 80 -32 22 -26 22 -30 22 -303 0 -244 -2 -281 -18 -312 -24 -48 -55 -62 -128 -57 -73 5 -149 43 -196 96 l-30 34 3 268 c4 305 2 296 86 306 42 4 53 10 62 30 23 50 10 53 -238 52 -124 0 -232 -3 -238 -6z m411 -39 c56 -8 61 -23 8 -22 -49 0 -104 -11 -98 -21 3 -4 -1 -25 -9 -47 -11 -30 -14 -103 -15 -306 l0 -266 42 -37 c68 -57 136 -85 212 -85 54 0 69 4 94 25 16 13 35 39 43 57 7 18 20 38 29 45 13 10 15 52 18 281 4 341 4 343 -126 358 -35 3 -60 9 -58 12 9 8 362 15 420 8 66 -9 75 -26 14 -27 -36 0 -100 -16 -75 -18 4 -1 1 -13 -7 -29 -11 -21 -15 -93 -18 -327 -4 -287 -5 -302 -27 -352 -26 -60 -63 -98 -85 -90 -9 4 -16 3 -16 -2 0 -12 -63 -23 -132 -22 -68 0 -167 43 -257 110 -29 23 -57 41 -62 41 -5 0 -9 -40 -9 -90 0 -49 -4 -90 -9 -90 -5 0 -11 5 -13 10 -4 13 -191 80 -223 80 -29 0 -88 21 -80 28 3 4 24 5 45 3 55 -4 76 5 90 39 7 16 16 28 20 25 17 -11 20 37 20 316 0 346 -1 351 -80 368 -28 6 -61 12 -73 13 -12 1 5 4 38 8 82 9 322 11 379 4z"/>
<path d="M6781 1454 c-18 -21 -21 -31 -13 -48 8 -17 172 -215 285 -346 12 -14 92 -108 177 -210 l154 -185 -159 -3 c-88 -2 -179 0 -202 3 -51 7 -89 44 -103 99 -17 64 -18 66 -41 66 -39 0 -48 -27 -49 -142 0 -58 3 -113 6 -122 5 -14 52 -16 423 -16 l416 0 -30 21 c-29 19 -39 20 -257 13 -124 -3 -291 -3 -370 1 l-144 7 -11 76 c-6 43 -15 87 -18 100 -6 18 -3 22 13 22 15 0 21 -8 25 -38 7 -59 45 -110 89 -122 21 -6 128 -9 250 -8 188 3 213 5 216 19 2 10 -97 135 -240 305 -134 159 -274 326 -311 372 -39 46 -79 85 -93 88 -33 8 -30 20 7 28 17 3 213 6 435 6 l404 0 0 -52 c0 -29 2 -91 5 -138 5 -80 5 -83 -9 -55 -8 17 -18 52 -21 79 -9 66 -52 112 -116 121 -24 3 -143 5 -264 3 -240 -3 -243 -4 -200 -59 16 -22 138 -166 247 -294 95 -112 283 -335 331 -393 58 -70 79 -82 85 -50 4 19 -48 82 -443 547 -50 58 -112 132 -139 165 l-49 58 219 -3 c189 -4 224 -6 247 -22 34 -22 52 -57 67 -129 13 -66 35 -77 65 -31 16 23 17 42 11 146 -3 66 -11 126 -17 133 -9 11 -91 14 -433 14 l-422 0 -23 -26z"/>
<path d="M2960 1413 c-47 -8 -90 -25 -85 -33 3 -4 -2 -24 -10 -44 -13 -30 -15 -116 -15 -549 0 -345 4 -524 11 -545 14 -40 60 -68 124 -77 28 -3 60 -8 71 -10 24 -5 42 21 26 37 -5 5 -37 13 -71 18 -78 11 -107 30 -120 77 -12 42 -14 1011 -2 1053 9 33 64 60 121 60 33 0 41 3 30 10 -15 10 -35 11 -80 3z"/>
<path d="M2107 1163 c-4 -3 -7 -14 -7 -24 0 -15 -98 -210 -345 -684 -115 -221 -145 -282 -145 -293 0 -5 27 -13 60 -17 56 -6 60 -9 60 -32 0 -19 -3 -23 -12 -16 -28 22 -361 32 -581 17 -86 -5 -107 -10 -107 -22 0 -13 26 -14 213 -10 116 3 274 3 350 -1 135 -6 138 -5 153 16 7 12 14 33 14 47 0 20 -7 27 -37 35 -21 6 -43 11 -50 11 -6 0 -15 4 -18 10 -5 9 81 183 283 570 30 58 82 160 116 227 33 68 66 123 71 122 6 0 26 -33 45 -72 34 -68 231 -454 393 -767 l75 -145 214 -1 c132 -1 198 1 173 6 -77 16 -212 30 -287 30 l-76 0 -58 112 c-307 604 -437 853 -452 871 -16 18 -34 22 -45 10z"/>
<path d="M3479 448 c-17 -23 -16 -24 78 -280 l25 -68 109 -1 c60 -1 115 -2 122 -3 6 -1 11 7 9 18 -2 11 1 15 8 11 8 -5 11 0 8 13 -4 27 -304 332 -326 332 -9 -1 -24 -10 -33 -22z m172 -170 c79 -84 147 -155 152 -156 4 -2 7 -8 7 -13 0 -5 -13 -3 -30 6 -17 9 -55 15 -92 15 -35 0 -68 4 -74 8 -7 4 -26 50 -44 102 -34 98 -50 129 -84 168 -19 22 -19 22 1 22 14 0 69 -52 164 -152z"/>
</g>
<g id="layer104" fill="#191691" stroke="none">
<path d="M950 2411 c-61 -25 -129 -86 -151 -135 -26 -57 -25 -144 2 -201 61 -129 258 -195 418 -140 l54 18 17 -23 c9 -12 19 -19 22 -14 3 5 9 47 13 93 6 77 5 84 -9 72 -9 -8 -16 -19 -16 -27 0 -7 -18 -31 -39 -52 -47 -47 -110 -67 -181 -59 -72 9 -117 34 -153 86 -31 44 -32 50 -32 142 0 84 3 99 24 130 13 19 38 44 55 55 33 22 109 44 149 44 49 0 129 -32 168 -67 48 -43 63 -37 23 10 -46 54 -113 79 -224 83 -77 3 -104 1 -140 -15z"/>
<path d="M1595 2424 c-60 -15 -126 -49 -158 -82 -48 -49 -67 -98 -67 -173 0 -74 32 -141 86 -179 19 -14 42 -31 50 -38 8 -7 14 -11 14 -8 0 4 17 -1 37 -9 51 -22 157 -26 221 -9 97 25 182 100 203 177 46 170 -82 314 -284 323 -45 1 -91 1 -102 -2z m169 -38 c77 -32 116 -104 116 -213 0 -142 -79 -233 -200 -232 -129 2 -200 82 -200 226 1 152 68 232 198 233 29 0 68 -6 86 -14z"/>
<path d="M2456 2341 c-50 -48 -117 -113 -150 -142 -32 -30 -81 -78 -109 -106 -28 -29 -54 -53 -59 -53 -4 0 -8 73 -8 163 0 181 5 199 58 201 18 0 32 4 32 9 0 4 -51 7 -112 6 -111 0 -112 -1 -73 -15 21 -8 43 -20 47 -27 4 -6 8 -96 8 -199 l0 -187 -27 -20 c-14 -12 -43 -24 -64 -27 -64 -11 -33 -24 53 -24 l81 0 140 133 c215 203 241 227 249 227 5 0 8 -64 8 -142 0 -165 -8 -191 -58 -196 -17 -2 -32 -7 -32 -13 0 -12 207 -12 215 1 4 6 -5 10 -20 10 -15 0 -35 5 -46 10 -18 10 -19 24 -19 245 0 169 -3 235 -11 235 -7 0 -53 -40 -103 -89z"/>
<path d="M2690 2345 c0 -49 2 -86 5 -83 3 3 16 25 28 49 32 63 83 90 169 88 74 -2 112 -24 123 -70 8 -34 -26 -70 -93 -100 -131 -58 -193 -92 -216 -120 -34 -41 -34 -88 0 -129 58 -68 137 -81 287 -44 20 5 33 1 47 -11 20 -18 20 -17 20 73 0 51 -2 92 -5 92 -3 0 -14 -19 -24 -42 -32 -75 -87 -108 -174 -104 -33 1 -53 8 -72 26 -56 53 -22 93 144 168 131 58 171 95 171 157 0 37 -5 49 -35 78 -59 57 -174 72 -288 39 -44 -13 -50 -12 -68 4 -19 17 -19 15 -19 -71z"/>
<path d="M4464 2421 c-49 -12 -97 -46 -119 -83 -17 -28 -20 -56 -23 -203 -2 -94 -9 -176 -14 -182 -6 -7 -23 -13 -39 -13 -15 0 -31 -4 -34 -10 -4 -6 42 -10 129 -10 84 0 136 4 136 10 0 6 -13 10 -28 10 -49 0 -52 11 -52 188 0 189 8 219 68 248 43 20 113 26 156 12 17 -5 37 -10 44 -11 7 0 29 -15 50 -33 l37 -32 3 -167 c3 -147 2 -169 -14 -186 -9 -10 -30 -19 -46 -19 -15 0 -28 -4 -28 -10 0 -6 43 -10 110 -10 67 0 110 4 110 10 0 6 -13 10 -28 10 -56 0 -62 20 -62 191 0 141 -2 159 -22 199 -35 69 -86 92 -207 96 -53 2 -110 0 -127 -5z"/>
<path d="M5110 2416 c-78 -22 -96 -33 -138 -81 -51 -58 -66 -102 -59 -175 6 -69 25 -109 78 -160 81 -78 237 -107 358 -66 55 19 55 19 72 -3 23 -29 28 -17 36 80 7 89 -2 98 -33 34 -31 -67 -108 -106 -196 -100 -133 8 -206 89 -207 228 -2 126 67 202 201 222 64 10 148 -16 198 -61 54 -49 70 -39 21 13 -72 75 -210 103 -331 69z"/>
<path d="M6240 2421 c-131 -28 -220 -130 -220 -251 0 -104 65 -188 179 -231 215 -80 447 42 442 234 -2 97 -61 181 -158 227 -52 24 -178 35 -243 21z m190 -42 c72 -44 100 -97 101 -191 1 -86 -16 -142 -56 -187 -55 -61 -152 -78 -230 -42 -77 35 -115 105 -115 211 0 98 34 167 105 211 44 27 148 26 195 -2z"/>
<path d="M3290 2408 c61 -17 60 -12 60 -239 l0 -209 -73 0 c-64 0 -76 3 -94 23 -11 12 -23 30 -26 40 -12 34 -30 19 -23 -20 3 -21 6 -48 6 -61 l0 -23 438 4 c475 4 494 6 544 59 22 23 28 40 28 73 0 53 -31 87 -102 111 l-50 16 40 42 c22 22 53 56 69 74 45 54 113 102 144 102 15 0 31 5 34 10 4 6 -26 10 -83 10 l-90 0 -37 -42 c-119 -134 -178 -188 -206 -188 l-29 0 0 94 c0 102 3 108 60 124 27 8 5 10 -105 10 -109 0 -132 -2 -104 -10 54 -14 59 -34 59 -236 0 -199 -7 -225 -55 -230 l-30 -3 3 51 c4 51 -11 69 -23 30 -15 -46 -44 -60 -127 -60 l-78 0 0 193 c0 105 3 202 6 214 6 20 33 36 79 46 11 3 -45 5 -125 5 -113 0 -137 -2 -110 -10z m683 -263 c132 -55 58 -212 -89 -190 l-44 6 0 100 0 99 49 0 c27 0 65 -7 84 -15z"/>
<path d="M5650 2408 c61 -17 60 -12 60 -239 l0 -209 -74 0 c-70 0 -76 2 -99 30 -14 16 -27 35 -30 42 -10 29 -16 -1 -10 -55 l6 -57 258 0 258 0 6 43 c4 24 5 55 3 68 -3 23 -5 22 -22 -11 -28 -53 -43 -59 -128 -60 l-78 0 1 198 c0 108 4 206 8 217 5 12 25 24 52 31 39 11 29 12 -101 12 -113 0 -137 -2 -110 -10z"/>
<path d="M6670 2408 c19 -5 41 -14 48 -20 17 -15 17 -419 0 -436 -7 -7 -27 -12 -46 -12 -19 0 -31 -4 -27 -10 8 -13 261 -13 345 1 103 16 150 57 150 129 0 39 -53 92 -108 108 l-42 13 33 37 c121 139 173 182 220 182 31 0 54 -27 117 -140 30 -52 78 -137 107 -188 29 -52 53 -96 53 -99 0 -3 10 -18 21 -35 18 -25 24 -27 34 -16 10 10 134 241 217 406 18 35 58 72 79 72 10 0 21 5 24 10 4 6 -38 10 -120 10 -82 0 -124 -4 -120 -10 3 -5 15 -10 26 -10 31 0 32 -23 3 -84 l-26 -56 -127 0 -127 0 -27 54 c-30 59 -27 86 8 86 13 0 27 5 30 10 4 7 -49 10 -153 10 l-159 0 -108 -115 c-89 -95 -112 -115 -136 -115 l-29 0 0 93 c0 50 4 97 8 103 4 6 25 16 47 22 33 8 15 10 -105 10 -113 0 -137 -2 -110 -10z m960 -188 c0 -12 -67 -149 -82 -167 -8 -10 -14 -8 -27 10 -16 20 -91 154 -91 161 0 1 45 4 100 5 63 1 100 -3 100 -9z m-655 -85 c116 -67 35 -204 -106 -180 l-39 7 0 99 0 99 52 0 c36 0 63 -7 93 -25z"/>
<path d="M633 1723 c4 -3 7 -22 7 -44 l0 -39 3574 0 c3423 0 3574 1 3578 18 3 10 1 28 -3 40 l-8 22 -3565 0 c-1960 0 -3570 2 -3578 3 -7 2 -10 2 -5 0z"/>
</g>
<g id="layer105" fill="#515151" stroke="none">
<path d="M3457 1500 c-68 -9 -175 -59 -228 -107 -38 -34 -103 -125 -115 -160 -4 -10 7 2 23 27 160 242 481 282 664 82 55 -59 92 -131 103 -194 10 -53 -4 -47 -38 17 -37 71 -104 131 -169 150 -100 30 -220 12 -273 -39 -12 -12 -45 -43 -74 -71 -60 -58 -82 -97 -104 -182 -20 -78 -20 -119 0 -127 9 -3 163 -6 343 -6 l328 0 -9 -60 c-4 -33 -19 -82 -32 -108 -23 -46 -84 -110 -123 -130 -37 -19 -173 -34 -264 -30 -77 3 -104 9 -147 31 -156 79 -236 213 -261 442 l-8 70 -1 -85 c-4 -215 83 -366 258 -449 68 -33 84 -36 180 -39 88 -3 115 0 170 18 141 47 243 169 257 306 4 37 2 54 -8 60 -8 5 -160 11 -339 14 l-325 5 1 45 c1 120 71 230 181 285 52 27 68 30 148 30 73 0 98 -4 131 -22 48 -26 105 -86 134 -143 17 -33 24 -39 38 -31 10 5 24 21 31 34 11 21 11 33 -3 75 -67 202 -255 319 -469 292z"/>
<path d="M5305 1499 c-119 -11 -230 -85 -307 -203 -21 -33 -38 -64 -38 -70 1 -6 10 7 22 28 33 64 120 143 195 179 61 28 78 32 158 32 104 0 161 -18 232 -72 25 -19 47 -32 50 -29 3 3 8 25 10 50 4 33 11 47 24 51 19 6 165 -42 266 -87 39 -17 50 -27 44 -37 -7 -10 -13 -11 -29 -2 -11 6 -36 11 -54 11 -29 0 -35 -5 -53 -42 -18 -40 -19 -79 -24 -645 -3 -330 -3 -599 2 -596 4 2 7 11 7 19 0 8 4 14 9 14 5 0 11 249 13 598 2 502 5 602 17 616 11 13 27 17 63 14 45 -3 50 -1 66 26 17 27 16 28 -7 44 -40 27 -253 103 -289 104 -39 0 -61 -23 -62 -65 l0 -29 -32 22 c-90 59 -174 80 -283 69z"/>
<path d="M6316 1499 c-69 -10 -152 -46 -207 -90 -41 -33 -135 -156 -126 -165 3 -3 12 7 20 23 25 46 102 117 164 150 113 61 262 68 369 19 106 -49 211 -180 230 -288 9 -53 -8 -47 -36 12 -33 70 -104 135 -171 154 -71 21 -164 20 -214 -3 -62 -28 -180 -144 -209 -205 -26 -56 -52 -176 -42 -201 5 -13 53 -15 341 -15 l335 0 0 -47 c0 -85 -76 -210 -150 -247 -47 -24 -165 -39 -266 -34 -85 4 -107 9 -159 36 -65 33 -121 83 -165 147 -32 46 -70 150 -70 190 0 17 -4 24 -12 19 -6 -4 -8 -3 -5 3 3 5 2 39 -2 74 l-8 64 -2 -75 c-2 -152 41 -271 129 -360 89 -88 197 -130 338 -130 147 0 262 56 336 163 57 83 84 199 53 226 -9 7 -119 12 -338 13 -370 3 -342 -5 -318 97 27 119 83 192 187 243 66 32 208 33 268 1 51 -27 96 -73 126 -129 26 -50 48 -56 72 -19 22 33 20 51 -10 115 -89 192 -260 289 -458 259z"/>
<path d="M963 1479 c-81 -11 -97 -16 -111 -40 -13 -21 -13 -21 15 -14 15 4 46 11 68 16 52 10 737 -1 751 -12 14 -11 24 -1 24 22 0 11 -9 20 -22 23 -39 8 -671 13 -725 5z"/>
<path d="M2051 1461 c-22 -22 -55 -81 -49 -87 2 -2 12 12 23 31 21 40 48 45 68 13 8 -13 72 -135 142 -273 70 -137 186 -365 258 -505 71 -140 134 -259 138 -265 5 -5 9 6 9 25 0 25 -36 105 -126 280 -70 135 -186 361 -259 504 -73 142 -140 267 -149 277 -20 24 -31 24 -55 0z"/>
<path d="M2450 1460 c-11 -20 -8 -20 300 -20 236 0 310 -3 310 -12 0 -8 6 -6 17 4 13 14 14 20 3 32 -11 14 -54 16 -316 16 -293 0 -304 -1 -314 -20z"/>
<path d="M3923 1473 c-7 -2 -13 -11 -13 -19 0 -12 39 -14 235 -14 l235 0 0 -22 c1 -21 2 -21 16 5 29 54 17 57 -235 56 -124 0 -232 -3 -238 -6z"/>
<path d="M4493 1473 c-7 -2 -13 -11 -13 -19 0 -12 39 -14 234 -14 148 0 237 -4 241 -10 4 -6 11 -8 16 -5 15 10 10 42 -7 49 -19 7 -453 7 -471 -1z"/>
<path d="M6792 1468 c-7 -7 -12 -16 -12 -20 0 -4 193 -8 429 -8 l428 0 7 -61 c9 -92 7 -209 -4 -209 -5 0 -12 17 -15 38 -17 99 -30 126 -74 157 l-43 30 -231 4 c-209 3 -232 2 -243 -14 -11 -15 3 -36 110 -164 68 -80 177 -209 242 -286 65 -77 151 -178 192 -225 41 -47 79 -95 85 -108 11 -24 30 -25 35 0 4 19 -48 82 -443 547 -50 58 -112 132 -139 165 l-49 58 219 -3 c189 -4 224 -6 247 -22 34 -22 52 -57 67 -129 13 -66 35 -77 65 -31 16 23 17 42 11 146 -3 66 -11 126 -17 133 -16 19 -848 21 -867 2z"/>
<path d="M3890 1422 c0 -16 9 -20 52 -24 57 -6 72 -19 89 -81 13 -50 35 -35 25 17 -9 46 -47 76 -97 76 -21 0 -45 7 -53 16 -15 14 -16 14 -16 -4z"/>
<path d="M4460 1424 c0 -18 7 -22 58 -27 45 -5 62 -12 80 -32 22 -26 22 -32 24 -298 l2 -272 7 255 c4 140 8 268 9 284 1 44 -27 66 -100 76 -35 5 -67 15 -71 22 -6 9 -9 7 -9 -8z"/>
<path d="M6761 1429 c-1 -9 9 -29 21 -45 21 -27 221 -266 272 -324 11 -14 91 -108 176 -210 l154 -185 -159 -3 c-88 -2 -179 0 -202 3 -51 7 -89 44 -103 99 -17 64 -18 66 -42 66 -22 0 -55 -36 -44 -48 3 -3 6 0 6 6 0 7 8 12 19 12 14 0 21 -10 26 -37 9 -48 40 -99 73 -121 22 -14 59 -18 234 -21 204 -3 238 1 238 29 0 5 -39 55 -87 112 -80 94 -160 190 -373 443 -41 49 -79 95 -85 101 -5 6 -25 29 -44 52 -18 23 -40 42 -48 42 -7 0 -18 10 -23 23 -6 15 -9 17 -9 6z"/>
<path d="M2430 1411 c0 -5 30 -11 66 -14 99 -8 124 -31 140 -132 5 -32 8 -36 15 -22 14 24 0 102 -23 132 -10 13 -33 26 -51 29 -70 11 -147 14 -147 7z"/>
<path d="M1550 1404 c-8 -3 -26 -21 -40 -41 l-25 -37 -3 -400 c-1 -221 1 -432 5 -471 l8 -70 23 38 c24 41 27 51 13 43 -5 -3 -12 1 -15 10 -10 26 -7 841 4 868 12 31 40 47 104 56 l51 8 -55 0 c-30 0 -62 -2 -70 -4z"/>
<path d="M2912 1394 c-12 -8 -30 -30 -40 -47 -16 -29 -17 -76 -17 -552 0 -406 3 -527 13 -551 18 -43 77 -74 141 -74 28 0 51 -4 51 -10 0 -16 17 -11 24 7 10 25 -5 33 -73 43 -78 11 -107 30 -120 77 -12 42 -16 987 -5 1042 8 41 39 61 106 71 l53 8 -55 1 c-36 1 -63 -5 -78 -15z"/>
<path d="M4283 1400 c-12 -5 -30 -24 -40 -42 -16 -29 -18 -63 -18 -305 l0 -272 30 -32 c36 -38 133 -86 192 -95 82 -12 152 30 168 102 6 27 6 27 -12 -6 -25 -48 -56 -62 -129 -57 -73 5 -149 43 -196 96 l-30 34 3 268 c3 202 7 271 17 281 7 7 32 18 55 25 37 10 39 11 12 11 -16 1 -40 -3 -52 -8z"/>
<path d="M4862 1394 c-45 -31 -47 -44 -52 -364 -5 -281 -7 -309 -26 -350 -26 -56 -79 -114 -95 -104 -8 4 -9 3 -5 -4 17 -28 78 34 123 125 l28 58 5 302 c6 333 3 323 70 341 l35 10 -30 1 c-17 1 -41 -6 -53 -15z"/>
<path d="M840 1382 c0 -12 3 -22 8 -22 4 0 6 -44 4 -97 -2 -54 -1 -117 3 -140 6 -43 6 -43 48 -43 50 0 62 17 83 125 11 58 20 76 48 102 66 61 170 53 211 -17 19 -34 20 -52 23 -543 2 -345 0 -513 -7 -521 -6 -7 -53 -21 -106 -31 -79 -15 -97 -22 -111 -42 -9 -14 -12 -23 -6 -19 5 3 54 15 108 25 74 15 103 25 116 41 16 20 18 54 19 384 0 198 3 429 5 511 4 171 -4 213 -46 249 -33 27 -104 42 -142 31 -33 -11 -115 -100 -127 -138 -5 -18 -15 -58 -21 -89 -12 -60 -19 -68 -40 -43 -7 8 -19 15 -26 15 -10 0 -14 17 -15 68 -2 155 -5 192 -16 204 -10 9 -13 8 -13 -10z"/>
<path d="M5393 1381 c-36 -9 -41 -13 -125 -84 -74 -63 -114 -141 -129 -254 -25 -190 42 -358 168 -422 100 -50 234 -8 284 91 26 52 24 62 -4 14 -44 -78 -172 -114 -258 -72 -114 55 -179 205 -165 381 10 131 54 218 137 275 87 59 170 61 261 6 l53 -31 5 -245 5 -245 5 250 c6 284 13 260 -85 309 -59 29 -107 38 -152 27z"/>
<path d="M1931 1243 c-33 -65 -58 -119 -56 -121 2 -2 31 50 64 117 34 67 59 121 57 121 -3 0 -32 -53 -65 -117z"/>
<path d="M2113 1148 c-6 -7 -12 -20 -14 -28 -3 -12 -358 -704 -456 -889 -37 -70 -36 -70 60 -86 29 -5 37 -10 33 -21 -3 -9 -6 -22 -6 -29 0 -11 -6 -11 -30 2 -33 16 -305 24 -547 16 -104 -4 -123 -7 -123 -20 0 -14 23 -16 213 -11 116 3 274 3 350 -1 135 -6 138 -5 153 16 7 12 14 33 14 47 0 20 -7 27 -37 35 -21 6 -43 11 -50 11 -6 0 -15 4 -18 10 -5 9 81 183 283 570 30 58 82 160 116 227 33 68 66 123 71 122 6 0 26 -33 45 -72 34 -68 231 -454 393 -767 l75 -145 204 -1 c201 -2 202 -2 118 11 -47 7 -133 14 -191 14 -73 1 -110 5 -116 13 -6 7 -86 162 -179 343 -279 545 -328 639 -340 642 -6 2 -16 -2 -21 -9z"/>
<path d="M4932 1110 c0 -19 2 -27 5 -17 2 9 2 25 0 35 -3 9 -5 1 -5 -18z"/>
<path d="M1815 1018 c-26 -51 -99 -194 -163 -318 -63 -124 -110 -220 -105 -215 6 6 66 118 133 250 68 132 138 269 157 304 18 36 31 66 29 68 -2 2 -25 -38 -51 -89z"/>
<path d="M4930 988 c1 -129 108 -308 232 -388 118 -77 299 -94 406 -38 l52 27 1 -142 c2 -172 6 -161 12 26 3 117 1 137 -11 137 -9 0 -24 -8 -34 -17 -10 -9 -26 -18 -36 -19 -9 -1 -48 -7 -85 -12 -205 -32 -398 93 -483 311 -13 32 -26 78 -30 103 -7 51 -24 59 -24 12z"/>
<path d="M3236 835 c-10 -27 26 -113 64 -153 47 -48 101 -74 165 -80 40 -3 61 2 105 25 51 26 100 79 100 107 0 6 -9 -3 -20 -20 -13 -19 -40 -40 -70 -53 -91 -39 -179 -22 -250 49 -25 25 -51 62 -57 83 l-11 37 209 0 209 0 0 -22 c1 -22 1 -22 15 -4 31 41 9 46 -230 46 -188 0 -224 -2 -229 -15z"/>
<path d="M6096 835 c-10 -27 32 -117 76 -162 86 -88 221 -94 312 -14 21 18 56 84 56 103 0 7 -9 -6 -20 -30 -16 -35 -29 -47 -72 -67 -111 -52 -224 -19 -289 83 -53 84 -58 82 176 82 l205 0 0 -27 c0 -22 2 -25 10 -13 5 8 10 25 10 38 l0 22 -229 0 c-197 0 -230 -2 -235 -15z"/>
<path d="M6831 678 c0 -53 2 -103 5 -112 5 -14 52 -16 423 -16 375 0 413 2 387 15 -24 13 -90 15 -400 15 -422 1 -412 -1 -403 72 3 24 2 61 -2 83 -7 33 -9 22 -10 -57z"/>
<path d="M3898 688 c-25 -25 -23 -55 5 -63 12 -4 72 -25 132 -47 154 -57 181 -61 200 -32 8 12 15 45 16 73 1 28 4 51 6 51 2 0 35 -24 72 -52 83 -63 148 -88 228 -88 59 0 130 17 118 28 -3 3 -49 6 -103 7 -89 0 -102 3 -157 31 -33 18 -85 50 -115 73 -30 23 -60 41 -67 41 -10 0 -13 -24 -13 -92 0 -86 -1 -90 -17 -76 -21 19 -211 84 -270 93 -27 4 -43 12 -43 21 0 10 10 12 45 7 33 -4 51 -1 70 11 14 9 25 20 25 24 0 4 -26 7 -57 7 -42 0 -63 -5 -75 -17z"/>
<path d="M3478 446 c-16 -22 -16 -23 9 -18 21 4 43 -14 152 -124 138 -140 187 -200 171 -207 -6 -3 -5 -4 2 -3 7 2 12 11 10 21 -2 11 1 14 8 10 8 -5 11 0 8 13 -4 27 -304 332 -326 332 -9 0 -25 -11 -34 -24z"/>
<path d="M3519 274 c27 -77 52 -147 56 -156 6 -16 21 -18 114 -18 86 1 102 3 86 12 -11 7 -55 15 -99 18 l-78 5 -37 105 c-41 117 -53 141 -75 159 -10 8 2 -38 33 -125z"/>
<path d="M5611 268 c-1 -21 -40 -33 -81 -24 -23 4 -35 0 -50 -16 -39 -42 -29 -51 124 -106 146 -53 181 -61 174 -41 -5 15 -170 74 -248 90 -78 15 -81 37 -4 35 50 -1 59 2 76 25 11 15 18 33 15 40 -4 10 -6 9 -6 -3z"/>
</g>
<g id="layer106" fill="#0620f3" stroke="none">
<path d="M950 2411 c-61 -25 -129 -86 -151 -135 -41 -91 -15 -212 59 -277 40 -35 117 -73 131 -64 5 3 11 0 13 -6 10 -29 226 -7 251 26 5 6 16 -1 31 -19 13 -15 26 -24 28 -20 3 5 9 47 13 93 6 77 5 84 -9 72 -9 -8 -16 -19 -16 -27 0 -7 -18 -31 -39 -52 -47 -47 -110 -67 -181 -59 -72 9 -117 34 -153 86 -31 44 -32 50 -32 142 0 84 3 99 24 130 25 38 81 79 106 79 8 0 15 3 15 8 0 14 103 13 157 -3 32 -9 70 -30 94 -52 22 -20 42 -33 46 -30 11 11 -51 76 -70 73 -9 -2 -15 0 -12 5 12 18 -72 41 -165 45 -76 3 -104 0 -140 -15z"/>
<path d="M1595 2423 c-54 -11 -126 -48 -158 -81 -48 -49 -67 -98 -67 -173 0 -74 32 -141 86 -179 19 -14 41 -29 47 -35 7 -5 17 -11 22 -12 42 -6 51 -9 57 -17 9 -13 187 -13 196 -1 4 6 17 11 30 13 30 3 102 52 136 92 48 58 59 176 23 247 -30 58 -141 144 -166 128 -5 -3 -11 0 -13 5 -3 11 -155 21 -193 13z m169 -37 c77 -32 116 -104 116 -213 0 -142 -79 -233 -200 -232 -129 2 -200 82 -200 226 1 152 68 232 198 233 29 0 68 -6 86 -14z"/>
<path d="M2456 2341 c-50 -48 -117 -113 -150 -142 -32 -30 -81 -78 -109 -107 -28 -29 -55 -51 -60 -49 -10 3 -10 307 0 333 3 8 20 21 37 29 29 12 23 13 -74 13 -103 1 -104 0 -65 -14 21 -8 43 -20 47 -27 4 -6 8 -96 8 -199 l0 -187 -27 -20 c-14 -12 -43 -24 -64 -27 -64 -11 -33 -24 53 -24 l81 0 140 133 c215 203 241 227 249 227 5 0 8 -64 8 -142 0 -165 -8 -191 -58 -196 -17 -2 -32 -7 -32 -13 0 -12 207 -12 215 1 4 6 -5 10 -20 10 -15 0 -35 5 -46 10 -18 10 -19 24 -19 245 0 169 -3 235 -11 235 -7 0 -53 -40 -103 -89z"/>
<path d="M2692 2345 c0 -48 2 -84 4 -82 3 3 15 24 27 48 32 63 83 90 169 88 74 -2 112 -24 123 -70 8 -34 -26 -70 -93 -100 -131 -58 -193 -92 -216 -120 -34 -41 -34 -88 0 -129 58 -68 137 -81 287 -44 20 5 33 1 47 -11 20 -18 20 -17 20 73 0 51 -2 92 -5 92 -3 0 -14 -19 -24 -42 -32 -75 -87 -108 -174 -104 -33 1 -53 8 -72 26 -56 53 -22 93 144 168 131 58 171 95 171 157 0 37 -5 49 -36 79 -55 54 -180 70 -292 37 -38 -11 -46 -10 -62 4 -17 16 -18 13 -18 -70z"/>
<path d="M4464 2420 c-48 -11 -97 -45 -119 -82 -17 -28 -20 -56 -23 -203 -2 -94 -9 -176 -14 -182 -6 -7 -23 -13 -39 -13 -15 0 -31 -4 -34 -10 -4 -6 42 -10 129 -10 84 0 136 4 136 10 0 6 -13 10 -28 10 -49 0 -52 11 -52 188 0 189 8 219 68 248 46 21 116 26 163 10 20 -7 44 -11 53 -10 10 1 16 0 13 -3 -3 -2 9 -17 26 -33 l32 -28 3 -167 c3 -147 2 -169 -14 -186 -9 -10 -30 -19 -46 -19 -15 0 -28 -4 -28 -10 0 -6 43 -10 110 -10 67 0 110 4 110 10 0 6 -13 10 -28 10 -56 0 -62 20 -62 191 0 141 -2 159 -22 199 -35 68 -84 91 -206 95 -53 1 -111 -1 -128 -5z"/>
<path d="M5110 2415 c-77 -21 -95 -32 -138 -80 -51 -58 -66 -102 -59 -175 13 -148 135 -242 316 -244 58 0 86 3 89 12 2 7 8 10 13 6 5 -3 23 1 39 10 28 14 31 13 49 -10 11 -14 22 -20 25 -15 4 6 9 47 13 92 7 89 -2 98 -33 34 -31 -67 -108 -106 -196 -100 -134 8 -206 89 -207 230 -1 96 39 163 117 196 17 8 32 16 32 19 0 3 24 6 52 8 73 3 151 -22 197 -63 50 -45 70 -45 34 0 -45 57 -121 89 -217 91 -45 1 -101 -4 -126 -11z"/>
<path d="M6240 2420 c-166 -32 -266 -203 -201 -346 42 -91 161 -156 291 -157 81 0 164 18 155 34 -4 5 -3 8 2 7 34 -9 99 47 135 117 26 51 26 141 -1 194 -27 53 -82 105 -138 131 -51 24 -173 34 -243 20z m190 -41 c72 -44 100 -97 101 -191 1 -35 -4 -82 -10 -106 -13 -45 -73 -122 -97 -122 -8 0 -14 -4 -14 -9 0 -5 -38 -8 -84 -8 -47 1 -83 4 -80 9 3 4 1 8 -5 8 -6 0 -26 14 -45 30 -64 56 -85 189 -47 289 10 28 16 53 12 57 -3 4 -1 4 5 1 7 -4 18 1 25 10 47 57 171 73 239 32z"/>
<path d="M3290 2408 c61 -17 60 -12 60 -239 l0 -209 -73 0 c-64 0 -76 3 -95 23 -12 13 -22 28 -22 34 0 6 -7 14 -16 17 -14 5 -16 1 -10 -31 3 -21 6 -48 6 -60 l0 -23 398 0 c363 0 517 8 532 28 3 4 12 8 20 10 30 6 60 55 60 98 0 52 -32 86 -102 110 l-50 16 40 42 c22 22 53 56 69 74 45 54 113 102 144 102 15 0 31 5 34 10 4 6 -26 10 -83 10 l-90 0 -37 -42 c-119 -134 -178 -188 -206 -188 l-29 0 0 94 c0 102 3 108 60 124 28 8 8 10 -95 10 -102 0 -124 -2 -103 -11 42 -17 48 -44 48 -235 0 -199 -7 -225 -55 -230 -30 -3 -30 -3 -28 48 1 51 -10 67 -22 30 -15 -46 -44 -60 -127 -60 l-78 0 0 193 c0 105 3 202 6 214 6 20 33 36 79 46 11 3 -45 5 -125 5 -113 0 -137 -2 -110 -10z m683 -263 c97 -40 88 -153 -15 -187 -32 -10 -53 -11 -80 -4 l-38 10 0 98 0 98 49 0 c27 0 65 -7 84 -15z"/>
<path d="M5653 2414 c4 -4 17 -12 29 -18 23 -11 23 -14 26 -224 l2 -212 -73 0 c-71 0 -75 1 -105 34 -17 19 -28 37 -25 40 4 3 1 6 -7 6 -9 0 -11 -9 -6 -31 3 -17 6 -44 6 -60 l0 -29 259 0 260 0 6 43 c5 39 4 87 -2 87 -1 0 -10 -15 -19 -32 -26 -50 -42 -57 -126 -58 l-78 0 0 194 c0 205 7 246 39 246 11 0 23 5 26 10 4 6 -34 10 -106 10 -62 0 -109 -3 -106 -6z"/>
<path d="M6673 2414 c4 -4 17 -12 29 -18 23 -11 23 -15 26 -220 2 -145 -1 -213 -9 -222 -6 -8 -28 -14 -47 -14 -26 0 -33 -3 -25 -11 11 -11 277 -8 361 4 161 23 177 189 24 235 l-42 13 33 37 c121 139 173 182 220 182 31 0 54 -27 117 -140 30 -52 78 -137 107 -188 29 -52 53 -96 53 -99 0 -3 10 -18 21 -35 18 -25 24 -27 34 -16 10 10 134 241 217 406 18 35 58 72 79 72 10 0 21 5 24 10 5 8 -34 10 -119 9 -71 0 -123 -5 -120 -10 3 -5 14 -9 25 -9 31 0 32 -23 3 -84 l-26 -56 -127 0 -127 0 -27 54 c-30 59 -27 86 8 86 13 0 26 4 29 9 4 5 -60 10 -152 10 l-158 2 -108 -116 c-90 -95 -113 -115 -137 -115 l-29 0 0 89 c0 103 5 121 31 121 10 0 19 5 19 10 0 6 -42 10 -107 10 -58 0 -103 -3 -100 -6z m955 -192 c3 -10 -61 -145 -80 -169 -8 -10 -14 -8 -27 10 -18 23 -91 154 -91 163 0 3 18 3 40 1 22 -2 40 -1 40 2 0 11 114 4 118 -7z m-653 -87 c58 -34 72 -90 35 -138 -23 -29 -119 -62 -134 -47 -6 6 -18 10 -28 10 -16 0 -18 10 -18 100 l0 100 52 0 c36 0 63 -7 93 -25z"/>
<path d="M640 1670 l0 -30 3575 0 3575 0 -2 30 -2 30 -3573 0 -3573 0 0 -30z"/>
</g>
<g id="layer107" fill="#717171" stroke="none">
<path d="M3457 1500 c-83 -11 -197 -71 -253 -133 -68 -75 -72 -93 -6 -28 139 139 345 177 508 95 98 -49 189 -174 201 -274 7 -63 -8 -66 -38 -8 -61 120 -143 171 -274 170 -50 0 -75 -7 -125 -32 -78 -39 -148 -104 -184 -169 -38 -70 -61 -185 -42 -213 0 -1 152 -5 336 -8 l335 -5 -3 -48 c-4 -57 -24 -117 -54 -160 l-22 -32 22 19 c53 46 104 221 71 242 -8 5 -160 11 -339 14 l-325 5 1 45 c1 120 71 230 181 285 52 27 68 30 148 30 73 0 98 -4 131 -22 48 -26 105 -86 134 -143 17 -33 24 -39 38 -31 10 5 24 21 31 34 31 59 -59 218 -170 301 -74 54 -192 80 -302 66z"/>
<path d="M5305 1499 c-119 -11 -230 -85 -307 -203 -21 -33 -38 -64 -38 -70 0 -6 13 12 29 39 85 148 259 233 423 206 68 -11 188 -65 188 -83 0 -17 18 -7 23 12 3 11 2 18 -2 15 -4 -2 -24 7 -45 21 -80 55 -163 74 -271 63z"/>
<path d="M5665 1502 c-12 -1 -26 -11 -32 -22 -11 -17 -10 -18 18 -10 20 6 44 4 72 -5 77 -24 180 -64 186 -72 3 -5 18 -14 33 -20 20 -9 26 -17 21 -30 -5 -15 -3 -15 10 2 34 42 20 53 -132 109 -126 46 -150 53 -176 48z"/>
<path d="M6316 1499 c-113 -17 -219 -82 -286 -175 l-35 -49 60 61 c69 70 159 119 253 136 82 15 195 -2 264 -39 63 -35 132 -110 169 -188 28 -58 39 -135 20 -135 -6 0 -24 27 -42 60 -48 91 -118 138 -225 153 -43 6 -139 -14 -158 -33 -8 -8 -3 -9 19 -3 17 4 66 8 110 8 62 -1 89 -6 121 -22 51 -27 96 -73 126 -129 26 -50 48 -56 72 -19 22 33 20 51 -10 115 -89 192 -260 289 -458 259z"/>
<path d="M1005 1484 c-5 -1 -36 -5 -68 -9 -40 -4 -64 -13 -77 -28 -26 -27 -21 -30 21 -13 19 7 57 17 84 20 80 10 719 -10 723 -23 6 -17 22 -2 22 19 0 12 -9 21 -22 24 -25 5 -667 15 -683 10z"/>
<path d="M2058 1468 c-19 -15 -58 -78 -58 -93 1 -5 10 7 21 28 14 27 26 37 44 37 31 0 21 18 423 -770 68 -135 131 -252 138 -260 40 -41 3 46 -112 270 -70 135 -186 361 -259 504 -157 307 -161 312 -197 284z"/>
<path d="M2451 1463 c-8 -17 9 -18 295 -18 239 0 306 -3 313 -13 6 -10 10 -10 21 3 10 12 10 18 0 30 -11 13 -58 15 -316 15 -279 0 -304 -1 -313 -17z"/>
<path d="M3923 1473 c-7 -2 -13 -11 -13 -18 0 -11 31 -12 168 -8 92 3 197 3 235 -1 60 -7 67 -10 67 -29 1 -20 2 -19 16 6 29 54 17 57 -235 56 -124 0 -232 -3 -238 -6z"/>
<path d="M4493 1473 c-7 -2 -13 -10 -13 -16 0 -9 63 -12 237 -12 181 0 237 -3 241 -13 5 -17 22 -5 22 18 0 10 -7 21 -16 24 -19 7 -453 7 -471 -1z"/>
<path d="M6792 1468 c-7 -7 -12 -14 -12 -17 0 -4 195 -6 432 -6 l433 0 3 -137 c1 -78 -1 -138 -6 -138 -5 0 -17 15 -26 33 -16 32 -21 22 -10 -20 8 -31 38 -29 59 4 16 23 17 42 11 146 -3 66 -11 126 -17 133 -16 19 -848 21 -867 2z"/>
<path d="M4461 1424 c-1 -19 6 -22 56 -27 100 -10 97 -3 103 -320 l6 -272 2 281 c2 327 6 315 -98 322 -44 3 -60 9 -63 21 -3 11 -5 10 -6 -5z"/>
<path d="M3890 1409 c0 -3 23 -9 52 -11 56 -6 75 -22 85 -73 5 -25 7 -26 13 -10 8 22 -6 71 -22 81 -15 10 -128 21 -128 13z"/>
<path d="M1575 1403 c-45 -11 -73 -43 -83 -91 -12 -56 -3 -902 9 -902 5 0 16 14 25 31 8 17 11 28 6 25 -6 -3 -13 1 -16 10 -10 26 -7 841 4 868 11 30 38 46 99 56 40 7 41 8 11 8 -19 0 -44 -3 -55 -5z"/>
<path d="M2491 1400 c101 -13 128 -33 140 -103 l6 -42 2 51 c1 42 -3 55 -24 74 -21 20 -37 24 -107 26 l-83 3 66 -9z"/>
<path d="M2988 1403 c12 -2 30 -2 40 0 9 3 -1 5 -23 4 -22 0 -30 -2 -17 -4z"/>
<path d="M4295 1401 c-11 -5 -29 -19 -40 -31 -19 -21 -20 -38 -22 -299 -3 -275 -3 -276 20 -301 23 -25 73 -57 137 -88 21 -10 60 -17 98 -17 59 0 66 2 93 33 16 18 29 37 29 43 0 5 -11 -3 -24 -18 -23 -26 -30 -28 -98 -28 -62 0 -81 5 -126 30 -29 16 -67 44 -84 64 l-30 34 3 268 c3 202 7 271 17 281 7 7 30 18 50 24 20 7 28 12 17 12 -11 1 -29 -3 -40 -7z"/>
<path d="M4875 1396 c-55 -24 -58 -42 -65 -376 -6 -335 -6 -334 -76 -421 l-28 -34 31 28 c17 16 46 58 64 95 l34 66 5 300 c3 166 9 307 13 314 5 7 23 19 40 26 18 8 28 15 22 15 -5 0 -24 -6 -40 -13z"/>
<path d="M2900 1373 c-47 -42 -52 -107 -48 -632 3 -509 0 -486 75 -540 33 -24 53 -31 88 -31 25 0 45 -4 45 -10 0 -16 17 -11 24 7 10 25 -5 33 -73 43 -78 11 -107 30 -120 77 -12 42 -14 1011 -2 1053 4 15 21 32 41 42 20 10 28 18 18 18 -10 0 -31 -12 -48 -27z"/>
<path d="M6782 1383 c8 -10 68 -81 132 -158 65 -77 128 -151 140 -165 11 -14 91 -108 176 -210 l154 -185 -159 -3 c-88 -2 -179 0 -202 3 -51 7 -89 44 -103 99 -6 22 -13 47 -15 54 -6 17 -52 15 -59 -3 -3 -10 1 -15 14 -15 13 0 23 -13 35 -50 10 -29 30 -61 49 -78 30 -26 44 -30 124 -36 93 -8 318 -6 340 2 19 7 14 24 -16 58 -15 17 -85 100 -156 185 -204 243 -281 334 -286 339 -3 3 -39 44 -79 93 -40 48 -80 87 -89 87 -13 0 -13 -2 0 -17z"/>
<path d="M7038 1379 c-2 -7 3 -20 11 -29 9 -9 35 -38 57 -65 23 -28 96 -115 164 -195 67 -80 141 -167 164 -194 22 -27 85 -101 139 -164 53 -63 97 -124 97 -134 0 -23 24 -19 28 4 3 17 -28 57 -260 330 -80 95 -195 232 -256 303 l-109 130 161 3 c225 4 282 -3 318 -38 15 -16 31 -43 35 -60 5 -25 8 -29 15 -16 13 23 -15 79 -53 107 -33 23 -39 24 -270 27 -183 3 -238 0 -241 -9z"/>
<path d="M5393 1373 c-44 -9 -23 -19 40 -19 62 -1 99 -13 160 -56 l27 -19 2 -222 2 -222 6 220 c3 121 2 227 -2 235 -3 8 -32 30 -63 49 -55 34 -118 46 -172 34z"/>
<path d="M1065 1342 c-71 -52 -97 -95 -110 -183 -10 -64 -19 -77 -45 -61 -27 16 -50 15 -50 -3 0 -11 11 -15 43 -15 50 0 61 17 83 125 11 58 20 76 48 102 41 38 93 50 147 34 45 -14 70 -46 80 -105 l6 -41 2 52 c1 45 -3 58 -27 84 -24 27 -37 33 -83 36 -48 4 -59 1 -94 -25z"/>
<path d="M1970 1320 c-11 -22 -18 -40 -15 -40 2 0 14 18 25 40 11 22 18 40 15 40 -2 0 -14 -18 -25 -40z"/>
<path d="M5307 1324 c-26 -19 -47 -36 -47 -39 0 -3 18 8 41 24 22 17 46 32 52 34 7 2 10 7 7 10 -3 3 -27 -10 -53 -29z"/>
<path d="M5848 1333 c-38 -43 -38 -51 -38 -635 0 -326 -4 -587 -9 -606 -6 -20 -6 -30 0 -27 5 4 9 13 9 21 0 8 4 14 9 14 5 0 11 249 13 598 3 674 -1 638 75 629 38 -4 41 -3 26 9 -25 19 -67 17 -85 -3z"/>
<path d="M854 1210 c0 -52 1 -74 3 -47 2 26 2 68 0 95 -2 26 -3 4 -3 -48z"/>
<path d="M6260 1246 c-94 -69 -149 -163 -158 -272 -2 -35 -3 -65 -1 -66 2 -1 155 -5 339 -8 l335 -5 -3 -54 c-5 -96 -48 -172 -131 -232 -30 -21 -51 -39 -46 -39 21 0 107 76 139 123 57 83 84 199 53 226 -9 7 -119 12 -338 13 -370 3 -342 -5 -318 97 26 112 57 159 143 217 28 19 46 34 41 34 -6 0 -30 -16 -55 -34z"/>
<path d="M5222 1247 c-11 -12 -33 -49 -49 -82 -26 -55 -28 -70 -28 -180 0 -135 11 -181 58 -251 63 -94 161 -139 262 -120 40 8 108 63 131 107 23 45 16 48 -9 5 -29 -53 -101 -90 -171 -90 -125 0 -220 103 -247 266 -20 118 5 265 58 336 28 37 26 42 -5 9z"/>
<path d="M1272 694 c-1 -355 -5 -464 -14 -472 -7 -5 -55 -18 -105 -27 -74 -14 -96 -22 -107 -40 l-15 -23 37 13 c20 7 72 21 115 31 66 14 80 21 88 41 5 15 8 215 6 481 l-2 457 -3 -461z"/>
<path d="M2110 1140 c0 -11 -198 -399 -411 -806 -38 -73 -69 -139 -69 -147 0 -17 21 -27 54 -27 12 0 31 -6 42 -14 17 -13 18 -18 7 -48 l-13 -33 20 25 c11 14 20 37 20 52 0 23 -6 29 -37 37 -21 6 -43 11 -50 11 -6 0 -15 4 -18 10 -5 9 81 183 283 570 30 58 82 160 116 227 33 68 66 123 71 122 6 0 26 -33 45 -72 34 -68 231 -453 393 -767 l75 -145 199 -1 c132 -1 176 1 133 6 -36 4 -117 8 -181 9 -75 1 -121 5 -131 14 -16 12 -45 68 -293 552 -207 403 -222 430 -239 433 -9 2 -16 -2 -16 -8z"/>
<path d="M3074 1010 c0 -52 1 -74 3 -47 2 26 2 68 0 95 -2 26 -3 4 -3 -48z"/>
<path d="M1790 970 c-33 -66 -58 -120 -55 -120 3 0 32 54 65 120 33 66 58 120 55 120 -3 0 -32 -54 -65 -120z"/>
<path d="M5933 1010 c0 -47 2 -66 4 -42 2 23 2 61 0 85 -2 23 -4 4 -4 -43z"/>
<path d="M4946 900 c9 -52 68 -158 119 -216 88 -101 206 -154 343 -154 43 0 87 3 100 6 44 12 20 19 -55 16 -168 -8 -300 54 -401 186 -14 19 -45 70 -69 115 -34 63 -42 74 -37 47z"/>
<path d="M3086 875 c16 -121 114 -242 244 -304 69 -33 84 -36 180 -39 67 -2 121 2 149 10 42 13 39 13 -65 10 -186 -6 -294 33 -394 145 -43 48 -91 129 -110 189 -9 25 -9 24 -4 -11z"/>
<path d="M5945 875 c22 -147 157 -288 320 -331 54 -15 204 -17 245 -4 33 11 20 12 -77 10 -155 -3 -255 32 -354 126 -39 38 -65 74 -86 122 -56 125 -54 122 -48 77z"/>
<path d="M3245 831 c-9 -29 32 -117 70 -150 39 -34 132 -71 178 -71 18 0 50 9 72 19 41 18 105 82 105 104 0 7 -9 -2 -20 -19 -13 -19 -40 -40 -70 -53 -91 -39 -179 -22 -250 49 -25 25 -51 62 -57 83 l-11 37 209 0 c192 0 209 -1 209 -17 0 -15 2 -16 10 -3 22 35 -5 40 -226 40 -202 0 -213 -1 -219 -19z"/>
<path d="M6110 835 c-17 -21 10 -92 53 -139 85 -92 207 -110 303 -44 33 23 74 84 74 109 0 8 -9 -5 -20 -29 -16 -35 -29 -47 -72 -67 -111 -52 -224 -19 -289 83 -53 84 -58 82 176 82 189 0 205 -1 205 -17 0 -15 2 -16 10 -3 22 35 -5 40 -220 40 -173 0 -210 -3 -220 -15z"/>
<path d="M4032 750 c0 -19 2 -27 5 -17 2 9 2 25 0 35 -3 9 -5 1 -5 -18z"/>
<path d="M6832 673 c-1 -50 1 -98 4 -107 5 -14 52 -16 423 -15 378 0 412 2 376 15 -33 12 -106 15 -408 13 -203 -1 -373 3 -377 7 -5 5 -11 47 -13 94 l-3 85 -2 -92z"/>
<path d="M1625 650 c-25 -49 -43 -90 -40 -90 3 0 25 41 50 90 25 50 43 90 40 90 -3 0 -25 -40 -50 -90z"/>
<path d="M3898 688 c-10 -10 -18 -24 -17 -30 0 -10 2 -10 6 0 3 7 25 12 58 12 35 0 59 5 69 16 9 8 16 16 16 17 0 1 -26 2 -57 2 -42 0 -63 -5 -75 -17z"/>
<path d="M4236 703 c-3 -4 -6 -31 -6 -62 0 -31 -4 -72 -10 -91 l-10 -35 20 25 c17 22 26 75 21 118 -3 19 5 15 78 -40 85 -65 148 -88 232 -87 90 1 124 17 38 18 -112 1 -185 30 -300 117 -31 24 -59 40 -63 37z"/>
<path d="M3799 624 c-7 -8 -30 -24 -51 -35 -39 -20 -52 -33 -20 -22 18 7 102 64 102 70 0 9 -19 1 -31 -13z"/>
<path d="M3895 630 c11 -5 76 -29 145 -54 125 -46 175 -57 153 -35 -13 13 -157 66 -233 84 -63 16 -96 18 -65 5z"/>
<path d="M5605 600 c-4 -7 -21 -20 -39 -31 -17 -10 -26 -19 -21 -19 6 0 24 9 40 20 l30 20 5 -128 5 -127 5 128 c4 91 2 132 -7 138 -7 7 -14 6 -18 -1z"/>
<path d="M3478 446 l-17 -24 33 8 c32 7 36 4 165 -131 73 -75 132 -140 131 -144 -1 -3 5 -17 14 -30 9 -14 12 -25 5 -29 -5 -2 -4 -3 3 -2 7 2 12 11 10 21 -2 11 1 14 8 10 8 -5 11 0 8 13 -4 27 -304 332 -326 332 -9 0 -25 -11 -34 -24z"/>
<path d="M3480 389 c0 -5 82 -238 95 -272 6 -15 21 -17 109 -17 69 0 96 3 86 10 -8 5 -47 10 -87 10 -61 0 -75 3 -93 22 -11 12 -20 28 -20 35 0 7 -4 21 -9 31 -5 9 -19 49 -31 87 -13 39 -29 77 -36 85 -8 8 -14 12 -14 9z"/>
<path d="M5478 226 c-37 -40 -25 -49 126 -104 143 -52 192 -64 169 -41 -16 16 -130 57 -225 82 -54 13 -78 24 -78 34 0 12 8 14 33 10 34 -6 98 11 104 28 2 6 -20 10 -54 10 -43 0 -61 -5 -75 -19z"/>
<path d="M1103 103 c-40 -2 -73 -8 -73 -12 0 -5 153 -9 340 -8 244 0 338 3 330 11 -11 11 -431 17 -597 9z"/>
</g>
<g id="layer108" fill="#3e51c7" stroke="none">
<path d="M1008 2423 c12 -2 30 -2 40 0 9 3 -1 5 -23 4 -22 0 -30 -2 -17 -4z"/>
<path d="M2449 2334 c-54 -52 -95 -94 -90 -92 5 2 51 43 102 93 l94 89 5 -224 6 -225 2 228 c1 159 -1 227 -9 227 -6 0 -55 -43 -110 -96z"/>
<path d="M7060 2375 c-24 -24 -42 -46 -39 -48 2 -2 24 19 48 45 55 61 50 63 -9 3z"/>
<path d="M3038 2385 c17 -14 34 -25 38 -25 11 0 -48 49 -59 50 -5 0 5 -11 21 -25z"/>
<path d="M6700 2397 l25 -13 5 -209 6 -210 2 206 c2 188 0 207 -16 222 -10 10 -25 17 -33 17 -8 0 -3 -6 11 -13z"/>
<path d="M863 2353 c-27 -27 -33 -34 -14 -17 20 17 47 38 61 48 13 9 19 16 13 16 -6 0 -34 -21 -60 -47z"/>
<path d="M1495 2388 c-32 -17 -85 -71 -101 -100 -24 -46 -15 -44 15 3 26 42 50 66 97 96 24 15 16 16 -11 1z"/>
<path d="M2983 2379 c15 -11 27 -28 27 -37 0 -8 3 -13 6 -9 12 12 -7 44 -34 56 l-27 11 28 -21z"/>
<path d="M4745 2386 c11 -9 28 -27 39 -39 l18 -22 -14 24 c-8 14 -25 31 -39 39 -23 14 -23 13 -4 -2z"/>
<path d="M5374 2392 c6 -10 1 -11 -21 -7 -15 3 -21 2 -13 -1 8 -4 23 -11 34 -16 14 -8 16 -7 11 2 -5 8 -3 11 4 9 7 -3 12 -8 11 -13 -3 -13 52 -66 68 -66 12 0 12 4 -3 20 -10 11 -22 17 -27 14 -5 -3 -8 1 -6 10 2 10 -11 25 -31 38 -19 13 -31 17 -27 10z"/>
<path d="M6512 2375 c20 -14 40 -25 45 -25 4 0 -9 11 -29 25 -20 14 -40 25 -45 25 -4 0 9 -11 29 -25z"/>
<path d="M6826 2384 c-3 -9 -6 -58 -6 -110 l0 -94 34 0 c28 0 43 10 92 60 33 34 61 66 63 72 2 6 -24 -19 -59 -55 -50 -53 -69 -67 -92 -67 l-30 0 4 105 c1 58 2 105 2 105 -1 0 -5 -7 -8 -16z"/>
<path d="M7287 2378 c11 -13 28 -38 37 -55 9 -18 19 -33 22 -33 11 0 -49 99 -65 105 -11 4 -10 0 6 -17z"/>
<path d="M7823 2388 c-6 -7 -13 -20 -17 -28 -7 -13 -6 -13 6 0 8 8 20 21 28 28 8 6 9 12 3 12 -6 0 -15 -6 -20 -12z"/>
<path d="M1546 2369 c-15 -12 -24 -24 -21 -27 3 -4 9 -2 13 4 4 6 18 18 32 27 13 9 20 17 14 17 -6 0 -23 -10 -38 -21z"/>
<path d="M1850 2387 c0 -2 15 -14 33 -27 20 -15 27 -17 18 -6 -13 16 -51 41 -51 33z"/>
<path d="M4137 2341 c-29 -27 -50 -51 -47 -53 3 -2 29 20 58 49 67 67 58 70 -11 4z"/>
<path d="M4989 2353 c-41 -44 -69 -83 -69 -98 0 -5 9 6 21 25 11 19 39 52 62 72 23 21 37 38 32 38 -6 0 -27 -17 -46 -37z"/>
<path d="M6205 2372 c-11 -9 -27 -26 -35 -37 -8 -11 4 -4 25 15 22 19 42 36 44 38 2 1 0 2 -5 2 -5 -1 -18 -8 -29 -18z"/>
<path d="M6440 2373 c31 -22 41 -32 63 -63 9 -13 17 -19 17 -13 0 17 -74 93 -91 93 -7 0 -2 -8 11 -17z"/>
<path d="M967 2361 c-15 -10 -35 -29 -44 -42 -15 -21 -13 -21 13 4 16 15 38 34 49 42 29 21 15 18 -18 -4z"/>
<path d="M1273 2365 c0 -18 54 -71 63 -62 6 6 -45 75 -57 76 -3 1 -6 -6 -6 -14z"/>
<path d="M1800 2369 c9 -8 26 -25 40 -39 l24 -25 -15 24 c-9 14 -26 31 -40 39 -18 11 -20 11 -9 1z"/>
<path d="M2742 2357 c-21 -22 -57 -97 -47 -97 3 0 12 18 21 40 9 22 28 49 42 60 13 11 20 20 15 20 -5 0 -19 -10 -31 -23z"/>
<path d="M4462 2373 c-7 -2 -17 -14 -23 -26 -9 -19 -8 -20 3 -7 8 8 20 21 28 28 15 13 13 14 -8 5z"/>
<path d="M7110 2323 l-55 -57 51 44 c43 38 71 70 61 70 -2 0 -27 -26 -57 -57z"/>
<path d="M5710 2165 l0 -204 -67 -4 -68 -3 73 -2 72 -2 0 210 c0 116 -2 210 -5 210 -3 0 -5 -92 -5 -205z"/>
<path d="M3350 2160 l0 -199 -72 -4 -73 -3 78 -2 77 -2 0 205 c0 113 -2 205 -5 205 -3 0 -5 -90 -5 -200z"/>
<path d="M3832 2273 l-2 -93 38 0 c30 0 44 6 62 28 12 15 37 43 54 62 17 20 5 10 -28 -22 -43 -43 -66 -58 -87 -58 l-28 0 -4 88 -3 87 -2 -92z"/>
<path d="M5061 2325 c-17 -20 -31 -41 -31 -48 0 -7 6 -3 12 8 6 11 22 32 36 48 14 15 23 27 20 27 -3 0 -20 -16 -37 -35z"/>
<path d="M4340 2329 c-6 -11 -10 -25 -8 -30 2 -5 8 4 15 21 13 34 9 40 -7 9z"/>
<path d="M1920 2333 c0 -6 6 -16 14 -22 8 -6 19 -25 26 -42 7 -16 15 -28 17 -25 3 2 -1 15 -8 28 -18 33 -49 72 -49 61z"/>
<path d="M7375 2300 c9 -16 18 -30 21 -30 2 0 -2 14 -11 30 -9 17 -18 30 -21 30 -2 0 2 -13 11 -30z"/>
<path d="M7757 2278 c-10 -17 -16 -33 -13 -35 2 -3 12 9 21 27 21 41 15 48 -8 8z"/>
<path d="M2498 2283 c-31 -37 -31 -47 -1 -23 18 14 32 28 32 33 1 13 -16 7 -31 -10z"/>
<path d="M7664 2275 c-5 -12 -30 -15 -136 -15 -71 0 -127 -3 -125 -7 3 -5 62 -7 131 -5 113 3 127 5 136 23 6 10 8 19 5 19 -3 0 -8 -7 -11 -15z"/>
<path d="M4412 2124 c-2 -144 0 -163 16 -175 15 -12 16 -12 5 2 -8 10 -13 69 -16 175 l-3 159 -2 -161z"/>
<path d="M4065 2262 c-5 -4 -23 -23 -40 -42 -28 -33 -28 -33 13 5 38 35 47 45 40 45 -2 0 -7 -4 -13 -8z"/>
<path d="M7013 2220 c-38 -43 -40 -50 -15 -50 13 0 14 2 3 9 -7 5 -9 10 -5 12 15 7 68 69 58 68 -5 0 -24 -18 -41 -39z"/>
<path d="M2353 2139 c-55 -55 -97 -99 -93 -97 13 4 202 190 198 194 -2 1 -49 -42 -105 -97z"/>
<path d="M6533 2205 c0 -22 2 -30 4 -17 2 12 2 30 0 40 -3 9 -5 -1 -4 -23z"/>
<path d="M883 2175 c0 -33 2 -45 4 -27 2 18 2 45 0 60 -2 15 -4 0 -4 -33z"/>
<path d="M1473 2170 c0 -36 2 -50 4 -32 2 17 2 47 0 65 -2 17 -4 3 -4 -33z"/>
<path d="M7622 2198 c-10 -30 -10 -31 3 -14 13 17 21 46 12 46 -1 0 -8 -15 -15 -32z"/>
<path d="M2280 2176 c-75 -72 -99 -105 -34 -46 51 47 91 91 82 90 -2 0 -23 -20 -48 -44z"/>
<path d="M5013 2175 c0 -22 2 -30 4 -17 2 12 2 30 0 40 -3 9 -5 -1 -4 -23z"/>
<path d="M6123 2170 c0 -25 2 -35 4 -22 2 12 2 32 0 45 -2 12 -4 2 -4 -23z"/>
<path d="M3008 2184 c-38 -20 -36 -28 2 -9 17 9 30 18 30 20 0 7 -1 6 -32 -11z"/>
<path d="M7415 2160 c9 -16 18 -30 21 -30 2 0 -2 14 -11 30 -9 17 -18 30 -21 30 -2 0 2 -13 11 -30z"/>
<path d="M7460 2150 c11 -22 23 -40 25 -40 3 0 -4 18 -15 40 -11 22 -23 40 -25 40 -3 0 4 -18 15 -40z"/>
<path d="M2778 2164 c-39 -21 -35 -28 5 -8 37 19 44 24 31 24 -5 -1 -21 -8 -36 -16z"/>
<path d="M3832 2063 c3 -104 4 -108 26 -109 18 -1 19 -1 2 3 -18 4 -20 12 -20 103 l0 99 43 4 42 4 -48 1 -48 2 3 -107z"/>
<path d="M4086 2141 c18 -11 39 -30 48 -42 9 -13 16 -19 16 -14 -1 22 -61 75 -85 75 -5 0 4 -9 21 -19z"/>
<path d="M6975 2136 c21 -13 43 -32 47 -42 7 -18 8 -18 5 1 -2 19 -59 65 -81 65 -6 0 7 -11 29 -24z"/>
<path d="M7051 2157 c2 -2 20 -14 39 -26 l35 -23 -30 26 c-16 14 -34 26 -39 26 -5 0 -7 -1 -5 -3z"/>
<path d="M7655 2080 c-19 -38 -33 -70 -30 -70 2 0 21 32 40 70 19 39 33 70 30 70 -2 0 -21 -31 -40 -70z"/>
<path d="M2706 2109 c-14 -17 -26 -36 -26 -42 0 -7 6 -3 12 8 6 11 20 30 31 43 11 12 18 22 15 22 -4 0 -18 -14 -32 -31z"/>
<path d="M4019 2116 c40 -55 20 -124 -43 -152 -20 -9 -25 -13 -12 -14 10 0 33 15 52 34 44 44 46 91 8 133 l-26 28 21 -29z"/>
<path d="M6628 2115 c-3 -11 -9 -29 -13 -40 -3 -11 1 -7 10 8 9 16 15 33 12 40 -2 6 -6 3 -9 -8z"/>
<path d="M5021 2100 c0 -14 28 -72 29 -59 0 4 -7 22 -15 40 -8 19 -14 27 -14 19z"/>
<path d="M1965 2080 c-4 -12 -23 -41 -43 -64 -36 -41 -36 -41 -3 -11 33 30 66 83 58 92 -3 2 -8 -5 -12 -17z"/>
<path d="M6030 2097 c0 -18 30 -64 62 -92 l33 -30 -31 35 c-18 19 -39 49 -47 65 -9 17 -16 26 -17 22z"/>
<path d="M1310 2075 c-7 -9 -10 -18 -6 -22 3 -3 7 0 7 8 1 8 5 1 9 -16 8 -30 8 -30 9 8 1 41 -1 44 -19 22z"/>
<path d="M3034 2054 c-9 -21 -28 -52 -42 -68 -24 -25 -24 -27 -5 -15 23 14 78 108 68 117 -2 3 -12 -12 -21 -34z"/>
<path d="M5442 2078 c-7 -7 -12 -18 -12 -25 0 -7 -19 -32 -42 -55 -24 -22 -33 -36 -21 -29 24 12 73 72 73 89 0 6 6 12 13 15 6 2 9 7 6 10 -3 4 -11 1 -17 -5z"/>
<path d="M801 2074 c-1 -6 17 -31 40 -55 30 -32 33 -34 13 -8 -16 20 -34 44 -41 55 -6 10 -12 14 -12 8z"/>
<path d="M1480 2076 c0 -11 30 -66 36 -66 2 0 -3 15 -12 33 -19 36 -24 44 -24 33z"/>
<path d="M2770 2060 c-28 -28 -25 -62 8 -91 l27 -24 -22 26 c-29 32 -29 56 -1 86 26 28 16 31 -12 3z"/>
<path d="M7516 2052 c9 -18 17 -32 18 -30 1 2 8 12 16 23 10 15 11 17 1 8 -11 -9 -18 -7 -32 10 -19 22 -19 21 -3 -11z"/>
<path d="M911 2040 c15 -32 39 -59 64 -72 12 -7 8 0 -10 18 -17 16 -38 40 -48 54 l-18 25 12 -25z"/>
<path d="M6510 2052 c0 -7 -17 -31 -37 -54 -35 -41 -36 -41 -4 -13 36 33 56 64 47 73 -3 3 -6 0 -6 -6z"/>
<path d="M6556 2005 c-26 -25 -40 -42 -30 -38 17 6 31 19 68 61 30 34 15 25 -38 -23z"/>
<path d="M1836 2015 c-10 -14 -31 -35 -49 -45 -18 -11 -27 -20 -20 -20 15 0 71 47 84 71 14 28 4 23 -15 -6z"/>
<path d="M7118 2010 c-9 -16 -32 -39 -50 -50 -18 -11 -29 -20 -24 -20 20 0 73 41 85 66 16 37 9 39 -11 4z"/>
<path d="M3151 2020 c-1 -20 27 -60 41 -60 6 0 2 10 -9 23 -11 12 -23 29 -26 37 -5 13 -6 13 -6 0z"/>
<path d="M3640 2012 c0 -6 -10 -21 -22 -32 -18 -16 -19 -20 -5 -14 19 7 42 42 33 52 -3 3 -6 0 -6 -6z"/>
<path d="M5510 2012 c0 -12 39 -57 44 -51 2 2 -7 17 -20 32 -13 15 -24 24 -24 19z"/>
<path d="M6000 2012 c0 -6 -10 -20 -22 -32 -12 -11 -17 -20 -10 -20 14 0 47 48 38 57 -3 3 -6 1 -6 -5z"/>
<path d="M6187 1990 c18 -19 34 -32 36 -29 2 2 -12 17 -32 33 l-36 30 32 -34z"/>
<path d="M2169 1964 l-34 -36 -87 4 c-47 2 -84 0 -81 -4 2 -5 41 -8 87 -8 l82 0 39 40 c21 22 37 40 34 40 -3 0 -21 -16 -40 -36z"/>
<path d="M5080 1993 c0 -9 40 -36 45 -31 2 2 -8 11 -21 21 -13 10 -24 14 -24 10z"/>
<path d="M4099 1969 c-23 -19 -23 -20 -2 -10 12 6 25 16 28 21 10 16 -1 12 -26 -11z"/>
<path d="M890 1975 c0 -7 61 -37 66 -33 2 3 -12 12 -31 21 -19 9 -35 15 -35 12z"/>
<path d="M2730 1955 c0 -7 61 -37 66 -33 2 3 -12 12 -31 21 -19 9 -35 15 -35 12z"/>
<path d="M5150 1950 c8 -5 26 -10 39 -10 32 0 24 6 -19 14 -25 4 -31 3 -20 -4z"/>
<path d="M5800 1953 c0 -5 24 -7 52 -5 89 5 97 9 21 11 -40 0 -73 -2 -73 -6z"/>
<path d="M3140 1928 c0 -5 185 -8 412 -8 226 0 409 2 406 5 -8 9 -818 11 -818 3z"/>
<path d="M4690 1928 c0 -4 50 -8 110 -8 61 0 110 3 110 8 0 4 -50 7 -110 7 -61 1 -110 -3 -110 -7z"/>
</g>
<g id="layer109" fill="#5a6ce6" stroke="none">
<path d="M2466 2348 l-81 -82 85 80 85 79 5 -220 6 -220 2 223 c1 160 -1 222 -9 222 -7 0 -48 -37 -93 -82z"/>
<path d="M7060 2375 c-24 -25 -42 -45 -39 -45 3 0 25 20 49 45 24 25 42 45 39 45 -3 0 -25 -20 -49 -45z"/>
<path d="M1653 2403 c15 -2 37 -2 50 0 12 2 0 4 -28 4 -27 0 -38 -2 -22 -4z"/>
<path d="M2050 2399 c13 -6 28 -15 32 -22 6 -9 8 -9 8 0 0 14 -32 33 -52 32 -7 0 -2 -5 12 -10z"/>
<path d="M2860 2404 c37 -8 88 -9 84 -2 -3 4 -26 7 -52 7 -26 -1 -40 -3 -32 -5z"/>
<path d="M3456 2397 c-11 -8 -16 -20 -13 -28 4 -11 6 -11 6 2 1 9 11 21 24 27 12 6 17 11 11 11 -5 1 -18 -5 -28 -12z"/>
<path d="M6308 2403 c12 -2 32 -2 45 0 12 2 2 4 -23 4 -25 0 -35 -2 -22 -4z"/>
<path d="M2983 2380 c15 -12 27 -29 28 -38 0 -11 2 -13 6 -4 6 15 -13 39 -41 53 -13 6 -11 2 7 -11z"/>
<path d="M6825 2378 c-3 -13 -5 -61 -3 -108 3 -83 4 -85 28 -86 24 -1 24 -1 2 3 -23 4 -24 6 -20 109 1 57 2 104 1 104 -2 0 -5 -10 -8 -22z"/>
<path d="M1545 2365 c-16 -13 -24 -24 -17 -25 6 0 12 3 12 8 0 4 12 15 28 24 15 10 23 18 17 18 -5 0 -23 -11 -40 -25z"/>
<path d="M4154 2354 l-39 -35 43 32 c38 30 48 39 39 39 -2 0 -21 -16 -43 -36z"/>
<path d="M4985 2348 l-40 -43 40 35 c22 19 44 38 50 42 5 5 5 8 -1 8 -5 0 -28 -19 -49 -42z"/>
<path d="M5397 2378 c7 -8 11 -17 8 -20 -3 -2 10 -18 28 -34 l32 -29 -30 34 c-20 23 -24 32 -12 28 25 -9 21 -2 -10 19 -20 13 -25 13 -16 2z"/>
<path d="M6189 2353 l-34 -38 40 35 c22 19 42 36 44 38 2 1 0 2 -5 2 -6 0 -26 -17 -45 -37z"/>
<path d="M1280 2365 c7 -8 9 -15 4 -15 -4 0 3 -11 16 -25 12 -13 27 -22 32 -19 11 7 -10 34 -25 31 -6 -1 -12 4 -13 11 -1 6 -2 17 -3 22 0 6 -6 10 -12 10 -8 0 -8 -5 1 -15z"/>
<path d="M6450 2369 c9 -8 26 -25 40 -39 l24 -25 -15 24 c-9 14 -26 31 -40 39 -18 11 -20 11 -9 1z"/>
<path d="M7119 2332 l-34 -37 35 30 c19 17 37 31 39 33 2 1 2 4 -1 7 -2 3 -20 -12 -39 -33z"/>
<path d="M3350 2160 l0 -199 -67 -4 -68 -3 73 -2 72 -2 0 205 c0 113 -2 205 -5 205 -3 0 -5 -90 -5 -200z"/>
<path d="M3834 2275 l1 -90 38 -3 c20 -2 37 1 37 5 0 5 -16 7 -35 5 l-34 -4 -4 88 -3 89 0 -90z"/>
<path d="M5710 2160 l0 -199 -67 -4 -68 -3 73 -2 72 -2 0 205 c0 113 -2 205 -5 205 -3 0 -5 -90 -5 -200z"/>
<path d="M7692 2335 c-17 -37 -14 -45 4 -12 9 16 14 31 11 33 -2 2 -9 -7 -15 -21z"/>
<path d="M7325 2320 c9 -16 18 -30 21 -30 2 0 -2 14 -11 30 -9 17 -18 30 -21 30 -2 0 2 -13 11 -30z"/>
<path d="M1418 2323 c-18 -21 -31 -43 -25 -43 2 0 13 14 25 30 25 33 24 41 0 13z"/>
<path d="M3965 2258 l-50 -53 53 50 c28 27 52 51 52 52 0 8 -9 -1 -55 -49z"/>
<path d="M7757 2275 c-9 -19 -15 -35 -12 -35 7 0 37 61 33 66 -3 2 -12 -12 -21 -31z"/>
<path d="M2494 2267 l-29 -32 30 25 c17 14 32 26 34 28 2 1 2 4 -1 7 -2 3 -18 -10 -34 -28z"/>
<path d="M7663 2275 c-7 -11 -37 -15 -138 -18 l-130 -3 132 -2 c123 -2 133 -1 143 18 12 23 5 28 -7 5z"/>
<path d="M6930 2235 c-24 -25 -42 -45 -39 -45 3 0 25 20 49 45 24 25 42 45 39 45 -3 0 -25 -20 -49 -45z"/>
<path d="M4039 2233 l-34 -38 38 34 c20 19 37 36 37 38 0 8 -8 0 -41 -34z"/>
<path d="M4414 2120 c0 -85 2 -120 3 -77 2 42 2 112 0 155 -1 42 -3 7 -3 -78z"/>
<path d="M4324 2120 c0 -80 2 -112 3 -72 2 39 2 105 0 145 -1 39 -3 7 -3 -73z"/>
<path d="M7017 2222 c-41 -42 -45 -52 -19 -52 13 0 14 2 3 9 -7 5 -9 10 -5 12 11 5 69 69 63 69 -3 0 -22 -17 -42 -38z"/>
<path d="M6532 2200 c0 -19 2 -27 5 -17 2 9 2 25 0 35 -3 9 -5 1 -5 -18z"/>
<path d="M883 2175 c0 -27 2 -38 4 -22 2 15 2 37 0 50 -2 12 -4 0 -4 -28z"/>
<path d="M1473 2165 c0 -33 2 -45 4 -27 2 18 2 45 0 60 -2 15 -4 0 -4 -33z"/>
<path d="M2280 2176 c-25 -24 -56 -56 -70 -72 -13 -16 8 2 48 41 66 63 77 75 70 75 -2 0 -23 -20 -48 -44z"/>
<path d="M1883 2175 c0 -22 2 -30 4 -17 2 12 2 30 0 40 -3 9 -5 -1 -4 -23z"/>
<path d="M5012 2180 c0 -19 2 -27 5 -17 2 9 2 25 0 35 -3 9 -5 1 -5 -18z"/>
<path d="M2330 2113 l-75 -78 80 75 c44 41 81 76 84 78 2 1 0 2 -5 2 -5 0 -43 -35 -84 -77z"/>
<path d="M3834 2157 c-3 -8 -3 -56 -2 -108 3 -86 5 -94 23 -95 15 -1 16 0 3 3 -16 4 -18 17 -18 103 l0 99 43 4 42 4 -43 1 c-27 1 -44 -3 -48 -11z"/>
<path d="M6822 2063 c3 -104 4 -108 26 -109 18 -1 19 -1 2 3 -18 4 -20 12 -20 103 l0 99 43 4 42 4 -48 1 -48 2 3 -107z"/>
<path d="M4024 2112 c5 -7 13 -30 17 -50 7 -37 7 -37 8 -6 0 18 -7 40 -16 51 -10 10 -14 13 -9 5z"/>
<path d="M7640 2050 c-11 -22 -18 -40 -15 -40 2 0 14 18 25 40 11 22 18 40 15 40 -2 0 -14 -18 -25 -40z"/>
<path d="M800 2074 c0 -7 17 -29 38 -51 20 -21 28 -28 16 -14 -11 14 -28 37 -37 51 -10 13 -17 20 -17 14z"/>
<path d="M2770 2058 c-28 -30 -25 -60 8 -89 l27 -24 -22 26 c-29 32 -29 56 -1 86 12 13 19 23 15 23 -3 0 -15 -10 -27 -22z"/>
<path d="M1926 2022 c-36 -42 -36 -44 -7 -17 28 25 58 66 49 65 -2 -1 -21 -22 -42 -48z"/>
<path d="M6048 2055 c6 -11 25 -33 44 -50 l33 -30 -35 40 c-19 22 -39 45 -44 50 -5 6 -4 1 2 -10z"/>
<path d="M7521 2047 c7 -15 13 -26 13 -25 1 2 8 12 16 23 11 16 11 17 0 8 -11 -10 -16 -9 -27 5 -11 15 -12 13 -2 -11z"/>
<path d="M3030 2045 c0 -8 -14 -31 -31 -52 l-32 -38 37 37 c31 32 47 68 31 68 -3 0 -5 -7 -5 -15z"/>
<path d="M5385 1997 c-38 -38 -32 -43 8 -8 16 14 43 53 35 50 -2 0 -21 -19 -43 -42z"/>
<path d="M5452 2010 c0 -19 2 -27 5 -17 2 9 2 25 0 35 -3 9 -5 1 -5 -18z"/>
<path d="M6471 1996 l-35 -41 39 37 c22 21 37 39 35 41 -3 2 -20 -15 -39 -37z"/>
<path d="M3151 2019 c-1 -8 11 -26 27 -40 l27 -24 -21 25 c-12 14 -24 32 -27 40 -5 13 -6 13 -6 -1z"/>
<path d="M3663 1985 c0 -22 2 -30 4 -17 2 12 2 30 0 40 -3 9 -5 -1 -4 -23z"/>
<path d="M5510 2013 c0 -5 12 -20 28 -34 l27 -24 -25 30 c-14 17 -26 32 -27 34 -2 2 -3 0 -3 -6z"/>
<path d="M6022 1990 c0 -19 2 -27 5 -17 2 9 2 25 0 35 -3 9 -5 1 -5 -18z"/>
<path d="M2154 1949 c-16 -18 -28 -20 -105 -17 -48 2 -85 0 -82 -4 2 -5 41 -8 87 -8 75 0 85 2 106 25 13 14 21 25 18 25 -3 0 -13 -9 -24 -21z"/>
<path d="M1311 1941 c-1 -24 -1 -24 -17 -5 -14 18 -15 18 -4 -5 14 -27 35 -15 27 15 -4 15 -5 13 -6 -5z"/>
<path d="M3473 1953 c20 -2 54 -2 75 0 20 2 3 4 -38 4 -41 0 -58 -2 -37 -4z"/>
<path d="M5833 1953 c20 -2 54 -2 75 0 20 2 3 4 -38 4 -41 0 -58 -2 -37 -4z"/>
<path d="M2440 1928 c0 -10 207 -10 213 0 3 4 -44 7 -104 7 -60 0 -109 -3 -109 -7z"/>
<path d="M3405 1930 c-246 -5 -233 -6 145 -6 401 -1 494 2 245 8 -66 2 -241 1 -390 -2z"/>
<path d="M4233 1928 c-2 -5 57 -8 131 -8 75 0 136 3 136 8 0 4 -59 7 -131 7 -72 0 -133 -3 -136 -7z"/>
<path d="M6646 1928 c3 -4 74 -7 157 -7 84 1 145 3 137 5 -35 7 -298 10 -294 2z"/>
</g>
<g id="layer110" fill="#909090" stroke="none">
<path d="M3457 1500 c-61 -8 -168 -55 -217 -96 -16 -14 -44 -44 -62 -67 -29 -38 -27 -37 30 16 136 127 307 166 469 105 78 -29 172 -122 214 -213 28 -60 30 -70 21 -108 l-11 -42 20 25 c24 31 20 63 -21 145 -85 172 -250 260 -443 235z"/>
<path d="M5305 1499 c-106 -10 -223 -81 -288 -173 -11 -17 4 -6 35 26 37 36 84 70 133 94 69 34 84 38 158 38 99 0 149 -13 218 -59 53 -36 84 -39 39 -4 -80 62 -183 89 -295 78z"/>
<path d="M5665 1502 c-12 -1 -26 -12 -33 -22 -12 -19 -11 -19 21 -4 31 15 36 14 166 -34 104 -38 137 -55 143 -72 8 -22 28 -19 28 4 0 20 -33 38 -149 80 -126 46 -150 53 -176 48z"/>
<path d="M6316 1499 c-105 -16 -207 -74 -268 -153 -31 -39 -30 -39 25 12 141 131 349 166 500 84 66 -35 142 -120 179 -197 27 -60 29 -70 20 -108 l-11 -42 19 25 c26 33 25 54 -6 120 -89 192 -260 289 -458 259z"/>
<path d="M963 1479 c-80 -10 -97 -16 -110 -38 -13 -20 -12 -20 28 1 46 24 81 25 547 21 244 -3 254 -4 259 -23 6 -24 23 -16 23 10 0 12 -9 21 -22 24 -39 8 -671 13 -725 5z"/>
<path d="M2051 1461 c-11 -11 -27 -35 -36 -53 -8 -18 -10 -24 -3 -14 21 32 61 67 72 63 13 -4 16 -10 186 -342 78 -154 155 -302 170 -330 15 -27 65 -124 111 -215 46 -91 85 -158 86 -150 2 8 -54 125 -123 260 -70 135 -186 361 -259 504 -73 142 -140 267 -149 277 -20 24 -31 24 -55 0z"/>
<path d="M2450 1460 c-9 -17 -8 -20 10 -20 12 0 18 5 15 10 -4 7 95 10 289 10 l296 0 0 -22 c0 -21 1 -21 17 -6 13 14 14 20 3 32 -11 14 -54 16 -316 16 -293 0 -304 -1 -314 -20z"/>
<path d="M3923 1473 c-18 -7 -16 -33 2 -33 8 0 15 5 15 10 0 6 80 10 220 10 l220 0 0 -32 1 -33 15 28 c29 54 17 57 -235 56 -124 0 -232 -3 -238 -6z"/>
<path d="M4493 1473 c-18 -7 -16 -33 2 -33 8 0 15 5 15 10 0 6 80 10 219 10 211 0 220 -1 226 -20 4 -11 11 -18 16 -15 15 10 10 42 -7 49 -19 7 -453 7 -471 -1z"/>
<path d="M6790 1465 c-7 -9 -9 -19 -5 -23 4 -4 10 -1 12 6 4 9 98 12 424 12 l419 0 11 -27 c12 -32 8 -247 -4 -260 -5 -4 -18 3 -30 17 -14 17 -18 19 -14 7 4 -10 7 -23 7 -28 0 -20 39 -7 55 18 16 23 17 42 11 146 -3 66 -11 126 -17 133 -9 11 -91 14 -434 14 -366 0 -424 -2 -435 -15z"/>
<path d="M3890 1408 c0 -4 17 -8 38 -9 50 -1 72 -10 88 -40 8 -15 13 -18 14 -8 0 30 -25 48 -82 57 -32 5 -58 5 -58 0z"/>
<path d="M4460 1410 c0 -4 26 -10 58 -13 45 -5 62 -12 80 -32 13 -16 22 -21 22 -12 0 26 -36 47 -98 55 -34 5 -62 6 -62 2z"/>
<path d="M2455 1404 c17 -2 50 -7 74 -10 30 -4 53 -15 73 -35 20 -19 28 -23 26 -13 -7 35 -53 56 -130 60 -40 1 -59 1 -43 -2z"/>
<path d="M6782 1383 c8 -10 68 -81 132 -158 65 -77 128 -151 140 -165 11 -14 91 -108 176 -210 l154 -185 -159 -3 c-88 -2 -179 0 -202 3 -51 7 -89 44 -103 99 -6 22 -13 47 -15 54 -6 17 -52 15 -59 -3 -4 -12 0 -14 19 -9 20 5 25 2 30 -23 10 -47 38 -95 68 -117 26 -19 43 -21 225 -24 108 -2 203 1 211 6 10 7 -46 80 -234 303 -252 300 -324 384 -361 426 -24 26 -45 32 -22 6z"/>
<path d="M1519 1364 c-27 -29 -26 -6 -21 -632 2 -308 5 -333 33 -280 8 14 8 18 0 14 -6 -4 -13 3 -16 16 -3 13 -4 214 -3 446 l3 424 24 19 c13 10 19 19 14 19 -5 0 -20 -12 -34 -26z"/>
<path d="M4256 1368 c-17 -27 -18 -49 -17 -346 l1 -223 37 -34 c106 -97 276 -125 315 -51 l11 21 -23 -20 c-18 -16 -36 -20 -94 -20 -60 0 -79 5 -124 30 -29 16 -67 44 -84 64 l-30 34 3 267 c3 207 7 271 18 283 7 10 11 17 7 17 -3 0 -12 -10 -20 -22z"/>
<path d="M4844 1369 c-17 -19 -19 -45 -25 -318 -4 -232 -9 -306 -21 -343 -21 -61 -13 -61 15 0 20 44 22 66 27 348 4 234 8 305 19 317 20 25 7 21 -15 -4z"/>
<path d="M2883 1353 c-17 -25 -18 -66 -18 -548 0 -481 1 -523 18 -548 26 -40 59 -58 121 -64 46 -5 56 -9 56 -24 0 -24 16 -25 24 -2 10 25 -5 33 -73 43 -79 11 -107 30 -121 80 -7 26 -10 208 -8 548 2 414 6 512 17 525 7 10 11 17 7 17 -3 0 -14 -12 -23 -27z"/>
<path d="M7056 1372 c-3 -5 81 -109 185 -233 449 -531 440 -519 433 -541 -4 -15 -2 -19 7 -16 8 3 15 12 17 20 4 19 -48 82 -443 547 -50 58 -112 132 -139 165 l-49 58 219 -4 c238 -4 251 -6 284 -61 11 -18 20 -25 20 -17 0 26 -31 61 -66 76 -25 11 -87 14 -248 14 -118 0 -217 -4 -220 -8z"/>
<path d="M5467 1355 c59 -14 137 -57 152 -83 6 -9 11 -12 11 -6 1 39 -110 105 -174 103 l-41 -1 52 -13z"/>
<path d="M1130 1353 c60 -10 92 -27 111 -57 14 -23 19 -26 19 -13 0 11 -14 32 -31 48 -26 24 -39 29 -78 28 -25 -1 -35 -4 -21 -6z"/>
<path d="M5858 1334 c-14 -7 -29 -25 -32 -40 -4 -14 -7 -279 -6 -588 0 -473 -2 -569 -15 -605 -8 -23 -10 -39 -5 -36 6 3 10 13 10 21 0 8 4 14 9 14 5 0 11 249 13 598 3 674 -1 638 76 629 48 -5 50 -1 5 12 -20 6 -37 4 -55 -5z"/>
<path d="M1012 1296 c-19 -21 -34 -55 -41 -88 -7 -29 -14 -64 -18 -78 -4 -19 -3 -22 7 -14 6 7 18 45 26 85 10 53 21 80 41 101 15 15 24 28 21 28 -3 0 -19 -15 -36 -34z"/>
<path d="M4624 1080 c0 -140 2 -198 3 -128 2 71 2 185 0 255 -1 71 -3 13 -3 -127z"/>
<path d="M3565 1311 c-23 -6 -13 -8 45 -12 47 -4 90 -14 116 -27 48 -24 105 -85 134 -142 21 -40 35 -55 23 -22 -18 46 -76 133 -103 152 -61 43 -153 65 -215 51z"/>
<path d="M6420 1311 c-18 -5 -3 -9 50 -13 116 -8 182 -50 241 -153 16 -27 29 -44 29 -37 0 20 -50 104 -81 134 -56 55 -171 88 -239 69z"/>
<path d="M853 1195 c0 -44 2 -61 4 -37 2 23 2 59 0 80 -2 20 -4 1 -4 -43z"/>
<path d="M5210 1228 c-42 -58 -63 -136 -63 -243 -1 -154 50 -269 147 -330 89 -55 210 -44 271 25 19 22 17 21 -20 -3 -88 -56 -176 -56 -256 1 -84 61 -122 154 -123 307 -1 121 16 193 61 253 13 17 22 32 19 32 -3 0 -20 -19 -36 -42z"/>
<path d="M1262 1230 c0 -19 2 -27 5 -17 2 9 2 25 0 35 -3 9 -5 1 -5 -18z"/>
<path d="M3344 1198 l-29 -33 33 29 c30 28 37 36 29 36 -2 0 -16 -15 -33 -32z"/>
<path d="M6204 1198 l-29 -33 33 29 c17 17 32 31 32 33 0 8 -8 1 -36 -29z"/>
<path d="M3296 1137 c-41 -62 -68 -195 -44 -215 11 -8 106 -12 339 -14 l324 -3 -1 -58 c-1 -42 -9 -74 -31 -117 -16 -33 -23 -55 -16 -49 23 20 64 119 70 171 10 80 20 78 -349 78 -287 0 -319 2 -325 17 -8 21 14 128 37 175 20 42 18 50 -4 15z"/>
<path d="M2042 994 c-40 -80 -69 -144 -65 -141 5 3 38 64 73 136 36 72 71 131 78 131 6 0 12 5 12 10 0 6 -6 10 -12 10 -7 0 -46 -66 -86 -146z"/>
<path d="M6135 1093 c-32 -75 -39 -142 -20 -173 4 -6 126 -10 330 -10 299 0 325 -1 334 -17 12 -24 -21 -154 -51 -196 -15 -21 -16 -27 -5 -18 50 40 97 212 65 239 -11 8 -104 12 -339 14 l-324 3 -3 25 c-3 23 16 110 33 153 4 9 4 17 1 17 -3 0 -13 -17 -21 -37z"/>
<path d="M2140 1107 c0 -12 73 -148 77 -143 4 4 -29 78 -38 86 -3 3 -13 19 -22 35 -9 17 -16 26 -17 22z"/>
<path d="M860 1090 c0 -5 15 -10 33 -10 24 0 28 3 17 10 -20 13 -50 13 -50 0z"/>
<path d="M1275 665 c0 -237 1 -332 2 -212 2 120 2 314 0 430 -1 117 -2 19 -2 -218z"/>
<path d="M1830 1050 c-11 -22 -18 -40 -15 -40 2 0 14 18 25 40 11 22 18 40 15 40 -2 0 -14 -18 -25 -40z"/>
<path d="M5932 960 c0 -19 2 -27 5 -17 2 9 2 25 0 35 -3 9 -5 1 -5 -18z"/>
<path d="M2299 793 c45 -90 84 -163 86 -163 7 0 -5 25 -79 170 -37 74 -73 140 -78 145 -6 6 27 -63 71 -152z"/>
<path d="M4950 876 c0 -20 74 -146 115 -192 83 -96 210 -155 323 -153 l57 2 -60 7 c-73 10 -146 34 -201 66 -64 36 -158 137 -198 212 -19 37 -36 63 -36 58z"/>
<path d="M3253 832 c-9 -6 -6 -20 11 -58 45 -97 124 -148 227 -148 50 0 74 5 102 23 36 22 84 78 75 87 -3 2 -11 -8 -19 -23 -8 -15 -35 -36 -64 -49 -91 -43 -183 -27 -255 46 -25 25 -51 62 -57 83 l-11 37 208 0 c157 0 210 -3 213 -12 3 -8 6 -6 6 5 1 16 -15 17 -211 17 -117 0 -218 -4 -225 -8z"/>
<path d="M6114 825 c-10 -24 35 -102 82 -144 45 -39 104 -61 165 -61 37 0 108 32 133 59 12 13 2 11 -40 -10 -113 -57 -228 -26 -295 79 -53 84 -58 82 175 82 174 0 205 -2 209 -15 4 -11 4 -10 3 2 -1 17 -19 18 -214 21 -181 2 -213 0 -218 -13z"/>
<path d="M1891 700 c-34 -66 -60 -120 -57 -120 7 0 128 231 123 236 -2 2 -32 -50 -66 -116z"/>
<path d="M5960 817 c0 -24 57 -113 100 -157 92 -91 199 -131 345 -128 l90 1 -90 7 c-103 8 -160 22 -226 55 -64 33 -155 119 -190 179 -16 28 -29 47 -29 43z"/>
<path d="M3131 751 c31 -66 112 -139 199 -180 72 -34 80 -36 190 -37 l115 -2 -90 7 c-132 11 -178 25 -260 77 -47 30 -134 115 -163 159 -7 11 -3 0 9 -24z"/>
<path d="M3910 702 c-6 -2 -15 -12 -20 -22 -8 -15 -6 -17 10 -13 11 3 20 10 20 15 0 5 18 7 43 3 30 -5 46 -3 54 7 9 11 1 13 -43 13 -30 0 -59 -2 -64 -3z"/>
<path d="M4239 668 c-1 -18 -1 -40 0 -48 1 -9 -5 -36 -14 -60 l-15 -45 20 25 c17 22 26 74 21 118 -3 19 5 15 78 -40 77 -58 148 -88 207 -87 37 1 35 2 -20 15 -63 15 -147 58 -211 109 -63 50 -65 50 -66 13z"/>
<path d="M6832 643 c-3 -102 -45 -93 416 -93 223 0 403 3 399 6 -3 3 -182 8 -398 10 -216 1 -396 7 -400 11 -4 4 -10 35 -12 68 l-3 60 -2 -62z"/>
<path d="M4741 607 c-29 -35 -30 -38 -7 -17 24 22 52 60 44 60 -2 0 -18 -19 -37 -43z"/>
<path d="M3895 630 c50 -22 272 -100 285 -100 29 0 -7 19 -95 50 -122 43 -253 78 -190 50z"/>
<path d="M2403 593 c29 -64 99 -195 102 -191 4 4 -104 218 -110 218 -2 0 2 -12 8 -27z"/>
<path d="M1705 340 c-42 -84 -74 -154 -71 -157 3 -3 26 -9 52 -14 53 -10 64 -21 56 -52 -3 -14 -1 -18 6 -13 7 4 12 20 12 36 0 25 -5 31 -37 39 -21 6 -43 11 -50 11 -28 0 -20 28 46 157 39 75 69 139 66 141 -2 2 -38 -64 -80 -148z"/>
<path d="M3476 444 l-18 -26 33 18 34 17 142 -147 c79 -81 143 -156 143 -165 0 -10 7 -18 15 -18 10 0 15 7 13 18 -4 25 -305 329 -326 329 -9 0 -25 -12 -36 -26z"/>
<path d="M2510 383 c0 -5 9 -21 20 -38 24 -36 26 -26 5 15 -15 29 -25 38 -25 23z"/>
<path d="M2558 293 c4 -10 24 -51 45 -90 l37 -73 188 2 187 2 -175 6 c-96 3 -182 9 -191 13 -8 4 -31 40 -50 78 -18 39 -37 73 -41 75 -4 3 -4 -3 0 -13z"/>
<path d="M5478 226 c-10 -11 -18 -25 -17 -30 0 -6 3 -5 6 2 2 6 11 12 19 12 8 0 14 4 14 10 0 5 20 7 48 3 36 -4 50 -2 54 8 9 24 -101 19 -124 -5z"/>
<path d="M1256 222 c-3 -5 -48 -17 -101 -27 -71 -13 -98 -23 -106 -36 -11 -21 0 -26 18 -8 5 5 49 18 97 28 82 17 117 33 104 46 -3 4 -9 2 -12 -3z"/>
<path d="M5461 176 c8 -7 286 -106 299 -106 27 0 -5 17 -94 50 -110 40 -222 71 -205 56z"/>
<path d="M3560 157 c0 -4 5 -18 12 -32 11 -24 13 -25 107 -23 l96 1 -88 6 c-77 5 -91 9 -108 30 -10 13 -19 21 -19 18z"/>
<path d="M1034 88 c-2 -3 147 -6 330 -5 184 0 333 4 330 9 -6 10 -654 6 -660 -4z"/>
</g>
<g id="layer111" fill="#bababa" stroke="none">
<path d="M2489 2263 l-24 -28 30 25 c17 14 32 26 34 28 2 1 0 2 -6 2 -5 0 -20 -12 -34 -27z"/>
<path d="M3955 2248 l-40 -43 43 40 c39 36 47 45 39 45 -2 0 -21 -19 -42 -42z"/>
<path d="M5203 1913 c9 -2 25 -2 35 0 9 3 1 5 -18 5 -19 0 -27 -2 -17 -5z"/>
<path d="M3459 1500 c-50 -6 -169 -51 -169 -64 0 -3 26 7 58 22 52 25 68 27 177 27 113 0 123 -2 178 -30 64 -32 155 -122 186 -183 34 -68 44 -111 30 -128 -6 -8 -10 -17 -7 -19 3 -3 11 2 18 10 26 31 -33 164 -106 241 -94 99 -222 143 -365 124z"/>
<path d="M5360 1498 c0 -4 15 -8 33 -8 51 0 107 -19 165 -57 30 -19 56 -32 58 -30 6 6 -83 63 -121 77 -41 16 -135 29 -135 18z"/>
<path d="M5680 1501 c0 -4 19 -12 43 -18 24 -7 92 -31 151 -53 95 -37 106 -44 100 -62 -4 -14 -2 -18 5 -14 18 11 13 33 -11 48 -22 14 -202 82 -260 98 -15 5 -28 5 -28 1z"/>
<path d="M6316 1499 c-78 -11 -170 -56 -226 -108 l-45 -43 62 47 c35 25 83 55 107 65 97 44 247 43 343 -2 67 -31 167 -134 200 -204 27 -60 32 -95 18 -129 l-8 -20 16 20 c23 28 21 51 -9 115 -89 193 -260 289 -458 259z"/>
<path d="M5209 1476 c-68 -27 -101 -51 -154 -107 -37 -39 -35 -39 18 8 71 64 150 103 225 113 56 7 56 7 12 8 -26 1 -68 -8 -101 -22z"/>
<path d="M1014 1482 c3 -2 157 -7 343 -11 l338 -6 -2 -23 c-2 -13 1 -21 7 -17 19 12 11 44 -12 49 -33 7 -680 15 -674 8z"/>
<path d="M925 1475 c-5 -2 -22 -6 -36 -9 -15 -3 -30 -13 -33 -23 -6 -16 -5 -16 11 -1 10 9 45 21 78 26 41 7 49 10 25 10 -19 0 -39 -1 -45 -3z"/>
<path d="M2058 1469 c-10 -5 -18 -14 -18 -20 0 -5 8 -4 19 2 10 7 25 10 32 7 8 -3 57 -88 108 -189 52 -101 115 -224 141 -274 26 -49 100 -193 165 -320 65 -126 122 -234 128 -240 15 -16 10 -5 -142 290 -80 154 -195 378 -256 498 -107 208 -136 257 -152 257 -5 0 -16 -5 -25 -11z"/>
<path d="M2450 1460 c-6 -11 -7 -20 -1 -20 5 0 11 7 15 15 5 13 45 15 303 13 l298 -3 -1 -23 c-1 -20 1 -21 14 -8 13 12 13 18 2 30 -11 14 -54 16 -316 16 -293 0 -304 -1 -314 -20z"/>
<path d="M3923 1473 c-7 -2 -13 -12 -13 -21 0 -14 1 -14 13 1 11 16 34 17 237 15 l224 -3 6 -25 c5 -22 7 -23 13 -6 17 43 -2 46 -242 45 -124 0 -232 -3 -238 -6z"/>
<path d="M4493 1473 c-16 -6 -17 -33 -2 -33 5 0 7 4 4 10 -11 17 37 21 255 18 l215 -3 -2 -23 c-2 -13 1 -21 7 -17 16 10 12 42 -6 49 -19 7 -453 7 -471 -1z"/>
<path d="M6792 1468 c-19 -19 -14 -33 6 -15 17 15 61 17 429 17 323 0 413 -3 421 -13 16 -19 28 -242 13 -251 -6 -4 -11 -15 -11 -24 0 -13 4 -11 16 7 15 20 16 41 10 144 -3 66 -11 126 -17 133 -16 19 -848 21 -867 2z"/>
<path d="M3222 1384 l-47 -46 53 42 c28 24 52 45 52 47 0 10 -16 -2 -58 -43z"/>
<path d="M2554 1390 c15 -5 36 -15 45 -22 9 -7 6 -3 -7 10 -13 12 -33 22 -45 21 -18 -1 -17 -2 7 -9z"/>
<path d="M4849 1373 c-11 -12 -15 -83 -20 -317 -5 -281 -6 -304 -27 -348 -12 -27 -19 -48 -16 -48 3 0 15 21 27 48 20 44 22 66 27 348 4 234 8 305 19 317 7 10 11 17 8 17 -2 0 -11 -7 -18 -17z"/>
<path d="M1516 1358 c-14 -20 -16 -79 -15 -453 0 -394 5 -486 22 -459 3 6 2 16 -4 24 -5 9 -9 197 -9 435 0 346 3 425 14 448 18 33 13 35 -8 5z"/>
<path d="M2889 1363 c-20 -23 -26 -1021 -7 -1079 18 -52 66 -84 127 -83 l46 1 -53 8 c-70 10 -99 31 -112 80 -7 26 -10 208 -8 548 2 414 6 512 17 525 7 10 11 17 8 17 -2 0 -11 -7 -18 -17z"/>
<path d="M7071 1353 c13 -16 420 -498 562 -666 31 -37 57 -71 57 -75 0 -4 -6 -14 -12 -21 -11 -11 -10 -13 2 -9 8 3 16 12 18 20 3 17 -29 57 -260 330 -80 95 -196 233 -258 306 -61 72 -114 132 -117 132 -3 0 1 -8 8 -17z"/>
<path d="M4246 1323 c-3 -21 -6 -141 -6 -266 0 -261 1 -267 77 -315 80 -51 121 -65 186 -60 45 3 63 10 80 28 l22 24 -24 -19 c-18 -16 -38 -20 -95 -20 -60 0 -79 5 -124 30 -29 16 -67 44 -84 64 l-30 34 3 269 c2 147 3 268 3 268 -1 0 -4 -17 -8 -37z"/>
<path d="M5487 1350 c17 -4 48 -17 68 -29 20 -11 33 -16 30 -11 -11 17 -83 50 -107 49 -18 -1 -16 -3 9 -9z"/>
<path d="M6800 1357 c0 -2 14 -16 32 -33 l32 -29 -25 32 c-20 27 -39 41 -39 30z"/>
<path d="M1196 1336 c18 -8 37 -22 43 -33 6 -10 11 -13 11 -6 0 16 -49 53 -69 53 -9 -1 -2 -7 15 -14z"/>
<path d="M5844 1319 c-18 -20 -19 -49 -24 -620 -3 -329 -2 -599 2 -599 3 0 8 269 10 598 3 653 1 627 61 635 l32 4 -31 1 c-20 1 -37 -5 -50 -19z"/>
<path d="M3681 1291 c42 -13 72 -32 113 -70 31 -28 36 -31 24 -11 -18 30 -114 90 -143 89 -16 -1 -16 -2 6 -8z"/>
<path d="M6585 1274 c17 -9 38 -23 48 -32 9 -8 19 -13 21 -11 6 6 -53 46 -79 54 -11 3 -6 -1 10 -11z"/>
<path d="M6899 1243 c24 -29 46 -53 48 -53 7 0 -54 75 -74 91 -10 8 2 -10 26 -38z"/>
<path d="M987 1257 c-3 -8 -9 -36 -12 -63 -4 -27 -12 -58 -18 -69 -7 -16 -7 -17 3 -8 7 6 18 42 25 80 13 66 13 89 2 60z"/>
<path d="M853 1165 c0 -27 2 -38 4 -22 2 15 2 37 0 50 -2 12 -4 0 -4 -28z"/>
<path d="M5174 1153 c-23 -59 -26 -221 -5 -304 18 -73 76 -157 134 -193 63 -39 141 -41 210 -7 26 13 46 25 44 27 -1 2 -23 -6 -47 -18 -115 -57 -247 -2 -307 129 -46 100 -54 260 -18 362 21 60 12 64 -11 4z"/>
<path d="M6960 1174 c0 -6 15 -23 32 -40 l33 -29 -25 30 c-14 17 -28 34 -32 40 -5 5 -8 5 -8 -1z"/>
<path d="M3279 1104 c-17 -44 -33 -148 -26 -167 6 -15 37 -17 329 -17 178 0 329 -4 337 -9 19 -12 9 -90 -19 -156 -12 -27 -16 -45 -11 -39 18 17 51 121 51 158 0 19 -6 38 -12 43 -7 4 -159 10 -338 13 l-325 5 1 50 c1 28 9 70 17 95 18 49 14 70 -4 24z"/>
<path d="M6136 1090 c-9 -22 -16 -50 -15 -63 1 -16 4 -12 11 13 5 19 14 46 19 59 5 13 8 25 6 28 -3 2 -12 -14 -21 -37z"/>
<path d="M7041 1074 c13 -17 26 -30 28 -27 3 2 -8 16 -24 31 l-28 27 24 -31z"/>
<path d="M6113 965 l2 -40 335 -5 c184 -3 337 -7 339 -8 10 -5 -9 -112 -28 -157 -14 -33 -16 -43 -6 -30 37 47 57 172 32 194 -9 7 -119 12 -338 13 l-324 3 -7 35 -6 35 1 -40z"/>
<path d="M1275 640 c0 -195 1 -275 2 -178 2 98 2 258 0 355 -1 98 -2 18 -2 -177z"/>
<path d="M7196 890 c42 -49 79 -90 81 -90 4 0 -23 34 -123 153 -12 15 -25 27 -29 27 -3 0 29 -40 71 -90z"/>
<path d="M1990 888 c-20 -42 -20 -42 -1 -18 19 23 34 60 25 60 -2 0 -13 -19 -24 -42z"/>
<path d="M3262 799 c6 -16 12 -28 14 -26 5 5 -13 57 -20 57 -3 0 0 -14 6 -31z"/>
<path d="M6120 817 c-1 -51 76 -144 142 -171 66 -28 166 -16 219 25 18 14 10 13 -34 -7 -128 -57 -266 1 -312 132 -8 22 -14 31 -15 21z"/>
<path d="M6846 814 c-5 -14 -4 -15 9 -4 23 19 39 6 52 -42 16 -59 46 -95 91 -108 42 -11 388 -14 395 -2 3 4 -22 36 -55 72 l-60 65 53 -65 52 -65 -159 -3 c-87 -2 -178 0 -201 3 -51 7 -89 44 -103 99 -6 22 -13 47 -15 54 -6 18 -52 15 -59 -4z"/>
<path d="M1927 765 c-15 -30 -25 -55 -22 -55 7 0 57 101 53 106 -2 2 -16 -21 -31 -51z"/>
<path d="M3280 751 c0 -16 77 -84 115 -102 65 -30 174 -21 215 18 9 9 -2 6 -30 -6 -89 -40 -180 -22 -252 51 -27 26 -48 44 -48 39z"/>
<path d="M3138 735 c6 -11 27 -38 47 -60 l37 -40 -38 50 c-48 63 -59 75 -46 50z"/>
<path d="M3910 702 c-6 -2 -15 -13 -22 -25 -11 -21 -10 -21 9 -4 13 11 36 17 66 17 25 0 48 3 50 8 5 7 -83 10 -103 4z"/>
<path d="M5082 664 c40 -42 126 -98 168 -109 14 -3 -2 8 -35 24 -33 17 -85 51 -115 77 -51 44 -52 45 -18 8z"/>
<path d="M4240 636 c0 -30 -3 -63 -6 -73 -5 -13 -4 -15 4 -8 6 6 12 34 13 63 1 28 4 52 7 52 3 0 15 -8 26 -17 15 -13 14 -10 -3 10 -14 15 -28 27 -33 27 -4 0 -8 -24 -8 -54z"/>
<path d="M3239 626 c14 -16 71 -51 71 -43 0 3 -19 17 -42 32 -25 16 -37 21 -29 11z"/>
<path d="M6101 621 c26 -20 124 -71 136 -71 4 0 -21 16 -56 35 -36 19 -69 39 -75 45 -5 5 -14 10 -19 10 -5 0 1 -8 14 -19z"/>
<path d="M4320 627 c0 -10 84 -64 110 -71 14 -4 5 5 -20 19 -25 14 -55 32 -67 41 -13 9 -23 14 -23 11z"/>
<path d="M4030 582 c8 -5 26 -13 40 -16 17 -5 20 -4 10 2 -8 5 -26 13 -40 16 -17 5 -20 4 -10 -2z"/>
<path d="M3360 561 c0 -8 41 -23 47 -17 2 1 -8 8 -22 14 -14 6 -25 8 -25 3z"/>
<path d="M7033 553 c108 -2 286 -2 395 0 108 1 19 2 -198 2 -217 0 -306 -1 -197 -2z"/>
<path d="M4470 540 c8 -5 24 -10 34 -10 26 0 18 6 -19 14 -22 5 -26 4 -15 -4z"/>
<path d="M3475 442 l-19 -26 33 24 34 23 154 -157 c112 -116 151 -162 143 -170 -7 -9 -5 -13 6 -13 9 0 14 7 12 18 -4 25 -305 329 -326 329 -9 0 -26 -13 -37 -28z"/>
<path d="M1670 269 c-17 -33 -29 -66 -27 -72 2 -6 26 -16 53 -22 46 -10 49 -12 49 -42 0 -17 3 -29 7 -26 5 2 8 17 8 33 0 25 -5 31 -37 39 -21 6 -43 11 -50 11 -25 0 -23 21 7 80 17 33 28 60 25 60 -2 0 -19 -27 -35 -61z"/>
<path d="M5492 240 c-4 -3 -14 -14 -22 -25 -15 -20 -14 -20 8 -1 17 15 35 19 71 17 27 -1 51 2 54 6 5 9 -100 11 -111 3z"/>
<path d="M1256 222 c-3 -5 -48 -17 -101 -27 -77 -14 -98 -22 -107 -39 -10 -20 -10 -20 8 -4 17 14 57 25 166 45 23 4 62 33 45 33 -3 0 -8 -4 -11 -8z"/>
<path d="M3065 175 c0 -14 3 -25 6 -25 10 0 20 31 13 41 -10 17 -19 9 -19 -16z"/>
<path d="M5600 127 c8 -8 144 -57 148 -53 2 2 -21 13 -50 24 -69 25 -104 36 -98 29z"/>
<path d="M1198 83 c23 -2 59 -2 80 0 20 2 1 4 -43 4 -44 0 -61 -2 -37 -4z"/>
<path d="M1528 83 c23 -2 59 -2 80 0 20 2 1 4 -43 4 -44 0 -61 -2 -37 -4z"/>
</g>
<g id="layer112" fill="#92a4eb" stroke="none">
<path d="M2485 2368 l-50 -53 53 50 c48 46 57 55 49 55 -1 0 -25 -24 -52 -52z"/>
<path d="M4079 2383 l-34 -38 38 34 c20 19 37 36 37 38 0 8 -8 0 -41 -34z"/>
<path d="M1663 2403 c9 -2 25 -2 35 0 9 3 1 5 -18 5 -19 0 -27 -2 -17 -5z"/>
<path d="M2873 2403 c9 -2 25 -2 35 0 9 3 1 5 -18 5 -19 0 -27 -2 -17 -5z"/>
<path d="M6313 2403 c9 -2 25 -2 35 0 9 3 1 5 -18 5 -19 0 -27 -2 -17 -5z"/>
<path d="M7044 2358 l-29 -33 33 29 c17 17 32 31 32 33 0 8 -8 1 -36 -29z"/>
<path d="M6734 2175 c0 -110 2 -156 3 -103 2 53 2 143 0 200 -1 57 -3 13 -3 -97z"/>
<path d="M5400 2357 c0 -2 15 -16 33 -33 l32 -29 -29 33 c-28 30 -36 37 -36 29z"/>
<path d="M6824 2275 c1 -89 1 -90 26 -91 21 -1 21 0 3 3 -21 4 -23 11 -26 91 l-3 87 0 -90z"/>
<path d="M1304 2322 c18 -21 29 -23 27 -5 -1 4 -4 8 -8 8 -5 0 -15 4 -23 9 -9 6 -7 1 4 -12z"/>
<path d="M4324 2125 c0 -77 2 -107 3 -67 2 40 2 103 0 140 -2 37 -3 4 -3 -73z"/>
<path d="M4414 2120 c0 -80 2 -112 3 -72 2 39 2 105 0 145 -1 39 -3 7 -3 -73z"/>
<path d="M7020 2225 c-19 -19 -30 -35 -24 -34 9 0 70 69 62 69 -2 0 -19 -16 -38 -35z"/>
<path d="M7473 2253 c37 -2 96 -2 130 0 34 2 4 3 -68 3 -71 0 -99 -1 -62 -3z"/>
<path d="M6914 2218 l-29 -33 33 29 c17 17 32 31 32 33 0 8 -8 1 -36 -29z"/>
<path d="M2277 2174 c-27 -26 -46 -48 -44 -50 2 -2 25 19 52 46 62 63 56 65 -8 4z"/>
<path d="M883 2170 c0 -25 2 -35 4 -22 2 12 2 32 0 45 -2 12 -4 2 -4 -23z"/>
<path d="M1473 2170 c0 -25 2 -35 4 -22 2 12 2 32 0 45 -2 12 -4 2 -4 -23z"/>
<path d="M3858 2163 c12 -2 30 -2 40 0 9 3 -1 5 -23 4 -22 0 -30 -2 -17 -4z"/>
<path d="M6824 2157 c-3 -8 -3 -56 -1 -108 l3 -94 2 102 2 102 33 4 32 4 -33 1 c-19 1 -35 -3 -38 -11z"/>
<path d="M2305 2088 l-50 -53 53 50 c48 46 57 55 49 55 -1 0 -25 -24 -52 -52z"/>
<path d="M820 2037 c0 -2 15 -16 33 -33 l32 -29 -29 33 c-28 30 -36 37 -36 29z"/>
<path d="M3290 1960 l-65 -7 62 -1 c34 -1 65 3 68 8 3 6 5 9 3 8 -2 -1 -32 -4 -68 -8z"/>
<path d="M3468 1953 c17 -2 47 -2 65 0 17 2 3 4 -33 4 -36 0 -50 -2 -32 -4z"/>
<path d="M5628 1953 c18 -2 45 -2 60 0 15 2 0 4 -33 4 -33 0 -45 -2 -27 -4z"/>
<path d="M5828 1953 c17 -2 47 -2 65 0 17 2 3 4 -33 4 -36 0 -50 -2 -32 -4z"/>
<path d="M1967 1928 c2 -5 42 -8 88 -8 46 0 86 3 88 8 3 4 -37 7 -88 7 -51 0 -91 -3 -88 -7z"/>
<path d="M2440 1928 c0 -5 47 -8 104 -8 58 0 107 3 109 8 3 4 -44 7 -104 7 -60 0 -109 -3 -109 -7z"/>
<path d="M3400 1930 c-233 -5 -215 -6 150 -6 228 0 393 1 365 3 -118 7 -267 8 -515 3z"/>
<path d="M4360 1930 l-135 -6 138 -2 c86 -1 137 2 137 8 0 6 -1 9 -2 8 -2 -1 -64 -5 -138 -8z"/>
<path d="M4690 1928 c0 -5 50 -8 110 -8 61 0 110 3 110 8 0 4 -49 7 -110 7 -60 0 -110 -3 -110 -7z"/>
<path d="M6647 1928 c2 -5 73 -7 156 -6 167 2 150 6 -40 10 -66 2 -119 0 -116 -4z"/>
<path d="M5628 1923 c72 -2 192 -2 265 0 72 1 13 3 -133 3 -146 0 -205 -2 -132 -3z"/>
</g>


</svg>